<svg width="110" height="60" viewBox="0 0 110 60" fill="none" xmlns="http://www.w3.org/2000/svg">
<path opacity="0.75" d="M77.6197 52.0833C81.9611 46.9669 84.583 40.3457 84.583 33.1122C84.583 16.8968 71.4305 3.75 55.208 3.75C38.9856 3.75 25.833 16.8968 25.833 33.1122C25.833 40.3457 28.455 46.9669 32.7963 52.0833H77.6197Z" fill="#F4F1ED"/>
<path d="M17.9768 41.6565L19.5195 41.3834L15.7517 20.0975L14.2091 20.3706L17.9768 41.6565Z" fill="#FBEECA" stroke="#FBEECA" stroke-miterlimit="10"/>
<path d="M15.4009 26.2008L16.5592 25.9967C16.9009 25.9383 17.1259 25.6133 17.0675 25.2717L16.1509 20.1008C16.0925 19.7592 15.7675 19.5342 15.4259 19.5925L14.2675 19.7967C13.9259 19.855 13.7009 20.18 13.7592 20.5217L14.6759 25.6925C14.7384 26.0342 15.0634 26.2633 15.4009 26.2008Z" fill="#FFE4DD" stroke="#FFE4DD" stroke-miterlimit="10"/>
<path d="M20.3493 44.3204L21.9077 44.1912L20.1035 22.6496L19.1577 21.2704L18.541 22.7787L20.3493 44.3204Z" fill="#EAEAEA" stroke="#EAEAEA" stroke-miterlimit="10" stroke-linecap="round" stroke-linejoin="round"/>
<path d="M22.4389 45.7369L24.0057 45.7437L24.1053 24.1274L23.2867 22.6747L22.5385 24.1206L22.4389 45.7369Z" fill="#EAEAEA" stroke="#EAEAEA" stroke-miterlimit="10" stroke-linecap="round" stroke-linejoin="round"/>
<path d="M18.7654 50.3576H26.3321L27.5488 34.041C27.6071 33.2826 27.0029 32.6326 26.2404 32.6326H16.5654L18.7654 50.3576Z" fill="#E2DBCE"/>
<path d="M17.0197 50.3576H23.3739L24.3614 32.6326H15.8947C15.1322 32.6326 14.5322 33.2785 14.5864 34.041L15.7114 49.1451C15.7656 49.8285 16.3322 50.3576 17.0197 50.3576Z" fill="#F4F1ED"/>
<path fill-rule="evenodd" clip-rule="evenodd" d="M85.8488 37.4052C83.9462 37.0068 81.8553 36.0855 79.8938 34.6769C77.9323 33.2683 76.418 31.5999 75.4844 29.9601C77.3831 30.3585 79.4779 31.2798 81.4394 32.6884C83.4009 34.0971 84.9152 35.7654 85.8488 37.4052Z" fill="#AFD1A1"/>
<path fill-rule="evenodd" clip-rule="evenodd" d="M85.9434 37.469C84.9352 37.2591 83.821 36.7683 82.7815 36.0177C81.738 35.2671 80.9337 34.3814 80.4395 33.5099C81.4477 33.7198 82.5618 34.2107 83.6053 34.9612C84.6409 35.7118 85.4451 36.5975 85.9434 37.469Z" fill="#D2E9CA"/>
<path fill-rule="evenodd" clip-rule="evenodd" d="M85.2098 38.4728C82.5932 36.4595 80.1022 33.4963 78.1956 29.8787C76.289 26.2611 75.2848 22.5723 75.1475 19.353C77.7641 21.3664 80.2552 24.3295 82.1617 27.9472C84.0643 31.5684 85.0725 35.2536 85.2098 38.4728Z" fill="#D2E9CA"/>
<path fill-rule="evenodd" clip-rule="evenodd" d="M87.4971 38.6472C89.8705 37.2706 92.2517 35.1007 94.2249 32.3332C96.1982 29.5658 97.4418 26.6453 97.9164 24.0201C95.543 25.3968 93.1618 27.5666 91.1886 30.3341C89.2192 33.1052 87.9757 36.022 87.4971 38.6472Z" fill="#AFD1A1"/>
<path fill-rule="evenodd" clip-rule="evenodd" d="M87.0102 37.0712C88.6108 33.4358 89.4974 28.8506 89.3562 23.8848C89.2149 18.919 88.0655 14.3836 86.2649 10.8406C84.6643 14.4761 83.7777 19.0613 83.919 24.0271C84.0563 28.9929 85.2057 33.5283 87.0102 37.0712Z" fill="#AFD1A1"/>
<path fill-rule="evenodd" clip-rule="evenodd" d="M86.4381 38.0107C87.458 34.1903 87.6267 29.5233 86.7166 24.6357C85.8104 19.7446 83.9705 15.4262 81.6403 12.1785C80.6203 15.9989 80.4516 20.6659 81.3618 25.5535C82.2719 30.4446 84.1078 34.763 86.4381 38.0107Z" fill="#D2E9CA"/>
<path fill-rule="evenodd" clip-rule="evenodd" d="M86.5081 38.6791C87.2261 35.9899 87.332 32.3474 86.6925 28.904C86.0531 25.4642 84.7624 22.4264 83.1226 20.1392C82.4047 22.8284 82.287 26.1081 82.9265 29.5514C83.562 32.9912 84.8684 36.3954 86.5081 38.6791Z" fill="#D2E9CA"/>
<path fill-rule="evenodd" clip-rule="evenodd" d="M86.4186 39.483C89.0509 36.4558 91.2909 32.3153 92.66 27.5238C94.0291 22.7322 94.3037 18.0759 93.6525 14.1772C91.0202 17.2044 88.7802 21.3449 87.4111 26.1365C86.042 30.928 85.7674 35.5879 86.4186 39.483Z" fill="#D2E9CA"/>
<path fill-rule="evenodd" clip-rule="evenodd" d="M87.4307 37.4052C89.3333 37.0068 91.4242 36.0855 93.3857 34.6768C95.3472 33.2682 96.8615 31.5999 97.7951 29.96C95.8964 30.3584 93.8016 31.2797 91.8401 32.6884C89.8786 34.097 88.3643 35.7653 87.4307 37.4052Z" fill="#D2E9CA"/>
<path fill-rule="evenodd" clip-rule="evenodd" d="M87.0498 37.4053C88.4856 37.1065 90.0666 36.4093 91.5455 35.3457C93.0284 34.2821 94.17 33.0228 94.8761 31.7814C93.4403 32.0802 91.8594 32.7774 90.3804 33.841C88.9014 34.9046 87.7559 36.1638 87.0498 37.4053Z" fill="#D2E9CA"/>
<path fill-rule="evenodd" clip-rule="evenodd" d="M96.3328 36.25H94.2871H92.7688H90.7231H76.9624H74.9167C74.761 36.25 74.6123 36.2752 74.4708 36.3184C74.4672 36.3184 74.4601 36.322 74.4566 36.322C74.4247 36.3328 74.3964 36.3472 74.3646 36.358C73.9788 36.5093 73.7063 36.8081 73.7558 37.1538L75.6564 49.9295C75.7307 50.4228 76.1802 50.8333 76.8173 50.8333H76.9624H94.2871H94.4322C95.0693 50.8333 95.5188 50.4228 95.5931 49.9295L97.4937 37.1538C97.568 36.6605 96.9734 36.25 96.3328 36.25Z" fill="#F4F1ED"/>
<path fill-rule="evenodd" clip-rule="evenodd" d="M87.5823 36.25H85.5247H82.8797H80.8221H66.9811H64.9235C64.7669 36.25 64.6173 36.2752 64.4749 36.3184C64.4714 36.3184 64.4643 36.322 64.4607 36.322C64.4287 36.3328 64.4002 36.3472 64.3682 36.358C63.9801 36.5093 63.706 36.8081 63.7558 37.1538L65.6675 49.9295C65.7423 50.4228 66.1944 50.8333 66.8352 50.8333H66.9811H85.5247H85.6707C86.3115 50.8333 86.7671 50.4228 86.8383 49.9295L88.75 36.25C88.75 36.25 88.2231 36.25 87.5823 36.25Z" fill="#E2DBCE"/>
<path d="M78.1321 49.9239C79.6936 49.9239 80.9639 48.6537 80.9639 47.0921V16.5574C80.9639 14.9958 79.6936 13.7256 78.1321 13.7256H29.0208C27.4593 13.7256 26.189 14.9958 26.189 16.5574V47.0921C26.189 48.6537 27.4593 49.9239 29.0208 49.9239H78.1321Z" fill="white"/>
<path d="M29.0215 16.5568V47.0956H78.1328V16.5568H29.0215Z" fill="#A5CAF9" fill-opacity="0.75"/>
<path fill-rule="evenodd" clip-rule="evenodd" d="M84.4964 54.1508C85.5725 54.1508 86.4463 53.2244 86.4463 52.0917C86.4463 50.959 85.5725 50.0326 84.4964 50.0326H23.1761C22.1 50.0326 21.2262 50.959 21.2262 52.0917C21.2262 53.2244 22.1 54.1508 23.1761 54.1508H84.4964Z" fill="white"/>
<path d="M23.1756 50.8369C22.5445 50.8369 22.0348 51.3992 22.0348 52.0869C22.0348 52.7747 22.5445 53.337 23.1756 53.337H84.4959C85.127 53.337 85.6367 52.7747 85.6367 52.0869C85.6367 51.3992 85.127 50.8369 84.4959 50.8369H56.4248H51.0606H23.1756ZM23.1756 49.2188H51.0606H56.4248H84.4959C86.017 49.2188 87.2549 50.5052 87.2549 52.0869C87.2549 53.6687 86.017 54.9551 84.4959 54.9551H23.1756C21.6545 54.9551 20.4166 53.6687 20.4166 52.0869C20.4166 50.5052 21.6545 49.2188 23.1756 49.2188Z" fill="#242424"/>
<path d="M29.0203 14.5349C27.9038 14.5349 26.9976 15.441 26.9976 16.5576V47.0964C26.9976 48.2129 27.9038 49.1191 29.0203 49.1191H78.1316C79.2481 49.1191 80.1543 48.2129 80.1543 47.0964V16.5576C80.1543 15.441 79.2481 14.5349 78.1316 14.5349H29.0203ZM29.0203 12.9167H78.1316C80.1381 12.9167 81.7725 14.551 81.7725 16.5576V47.0964C81.7725 49.1029 80.1381 50.7372 78.1316 50.7372H29.0203C27.0138 50.7372 25.3794 49.1029 25.3794 47.0964V16.5576C25.3794 14.551 27.0138 12.9167 29.0203 12.9167Z" fill="#242424"/>
<g opacity="0.5">
<path d="M66.4466 42.6438H40.5462C39.9902 42.6438 39.5381 42.1274 39.5381 41.4882V22.2867C39.5381 21.6495 39.9886 21.1312 40.5462 21.1312H66.4466C67.0026 21.1312 67.4548 21.6475 67.4548 22.2867V41.4882C67.4548 42.1274 67.0026 42.6438 66.4466 42.6438Z" fill="white"/>
<g opacity="0.75">
<path d="M66.4466 21.1337H40.5462C39.9902 21.1337 39.5381 21.65 39.5381 22.2892V22.8421H67.4548V22.2892C67.4548 21.65 67.0026 21.1337 66.4466 21.1337Z" fill="#87B8F7"/>
</g>
<path d="M52.0842 35.5998H41.3697C40.9828 35.5998 40.668 35.2389 40.668 34.7955V26.4358C40.668 25.9923 40.9828 25.6315 41.3697 25.6315H52.0842C52.471 25.6315 52.7858 25.9923 52.7858 26.4358V34.7955C52.7858 35.2389 52.4727 35.5998 52.0842 35.5998Z" fill="#CFE3FC"/>
<path d="M65.4249 35.5998H54.5396C54.1527 35.5998 53.8379 35.2389 53.8379 34.7955V26.4358C53.8379 25.9923 54.1527 25.6315 54.5396 25.6315H65.4249C65.8117 25.6315 66.1266 25.9923 66.1266 26.4358V34.7955C66.1266 35.2389 65.8134 35.5998 65.4249 35.5998Z" fill="#CFE3FC"/>
<path d="M43.0092 38.0659H41.1335C40.8756 38.0659 40.668 37.826 40.668 37.5323C40.668 37.2367 40.8773 36.9987 41.1335 36.9987H43.0092C43.2671 36.9987 43.4747 37.2386 43.4747 37.5323C43.4747 37.8279 43.2671 38.0659 43.0092 38.0659Z" fill="#CFE3FC"/>
<path d="M49.0685 38.0659H44.4665C44.2086 38.0659 44.001 37.826 44.001 37.5323C44.001 37.2367 44.2103 36.9987 44.4665 36.9987H49.0685C49.3264 36.9987 49.5341 37.2386 49.5341 37.5323C49.5341 37.8279 49.3264 38.0659 49.0685 38.0659Z" fill="#CFE3FC"/>
<path d="M50.3392 39.9882H41.1335C40.8756 39.9882 40.668 39.7482 40.668 39.4545C40.668 39.1589 40.8773 38.9209 41.1335 38.9209H50.3392C50.5971 38.9209 50.8047 39.1608 50.8047 39.4545C50.8047 39.7482 50.5954 39.9882 50.3392 39.9882Z" fill="#CFE3FC"/>
<path d="M57.4406 39.9882H52.2224C51.9645 39.9882 51.7568 39.7482 51.7568 39.4545C51.7568 39.1589 51.9662 38.9209 52.2224 38.9209H57.4406C57.6985 38.9209 57.9062 39.1608 57.9062 39.4545C57.9062 39.7482 57.6969 39.9882 57.4406 39.9882Z" fill="#CFE3FC"/>
</g>
<path d="M43.8016 47.1026H28.9961L49.3742 16.5568H64.082L43.8016 47.1026Z" fill="white" fill-opacity="0.5"/>
<path d="M29.0215 43.2619L46.7603 16.5568H35.7074L29.0215 26.6231V43.2619Z" fill="white" fill-opacity="0.5"/>
<path fill-rule="evenodd" clip-rule="evenodd" d="M65.9091 7.41321C67.8431 8.96531 68.098 11.8145 66.4702 13.6852L62.5975 18.1362L67.8293 22.3349C69.3252 23.5354 69.5646 25.7212 68.3641 27.2171C67.3163 28.5227 65.5178 28.8711 64.0826 28.1404C61.9018 30.892 60.8198 33.027 59.6631 36.5432C59.1247 38.1796 57.0971 38.8383 55.7088 37.7241L38.9456 24.2708C37.6037 23.1939 37.7338 21.1333 39.1599 20.2145C42.4186 18.115 44.2185 16.7925 46.524 14.0427C45.5139 12.8001 45.4701 10.98 46.513 9.68053C47.7135 8.18468 49.8993 7.94524 51.3951 9.14573L56.1573 12.9676L59.6643 8.22317C61.1383 6.22905 63.9751 5.86111 65.9091 7.41321Z" fill="#242424"/>
<path d="M48.8218 13.8489L63.7952 25.8657C60.7942 29.4068 59.4663 31.809 58.08 36.0228C57.8963 36.5814 57.2107 36.7928 56.7521 36.4248L39.9889 22.9715C39.5439 22.6144 39.583 21.9251 40.0627 21.6161C43.8677 19.1646 45.8485 17.6633 48.8218 13.8489Z" fill="#EAEAEA"/>
<path d="M65.2127 12.5915C66.2192 11.4348 66.0616 9.67305 64.8658 8.71334C63.6699 7.75363 61.9159 7.98114 61.0045 9.21416L56.4666 15.3532L50.3518 10.4459C49.5738 9.8215 48.437 9.94603 47.8126 10.724C47.1883 11.502 47.3128 12.6388 48.0908 13.2631L64.525 26.4523C65.303 27.0767 66.4398 26.9522 67.0641 26.1742C67.6885 25.3962 67.564 24.2594 66.786 23.635L60.2016 18.3508L65.2127 12.5915Z" fill="#E0B485"/>
<path d="M48.8218 13.8481L63.7952 25.8649C60.7962 29.4036 59.4681 31.805 58.0828 36.0136C57.8982 36.5744 57.2084 36.7846 56.7504 36.4119L46.7283 28.2573C46.4194 28.006 46.3315 27.5712 46.5186 27.2196L50.6312 19.4878C50.8561 19.065 50.2731 18.6227 49.9196 18.9456C47.683 20.9889 44.5763 23.59 42.5642 24.5149C42.3004 24.6362 41.9962 24.5817 41.7697 24.3999L39.9889 22.9707C39.5439 22.6136 39.583 21.9243 40.0627 21.6153C43.8677 19.1638 45.8485 17.6625 48.8218 13.8481Z" fill="white"/>
<path d="M64.168 10.8337C64.168 11.5241 63.6083 12.0837 62.918 12.0837C62.2276 12.0837 61.668 11.5241 61.668 10.8337C61.668 10.1434 62.2276 9.58374 62.918 9.58374C63.6083 9.58374 64.168 10.1434 64.168 10.8337Z" fill="#242424"/>
</svg>
