<svg width="134" height="108" viewBox="0 0 134 108" fill="none" xmlns="http://www.w3.org/2000/svg">
<path d="M175.5 64.3441C175.5 90.9578 134.275 104.25 96.0381 104.25C77.1238 104.25 59.981 98.7229 46.8662 89.9016C4.00328 61.0706 20.4167 8.25 74.7958 8.25C113.033 8.25 175.5 37.7305 175.5 64.3441Z" fill="#FAF8F6"/>
<path d="M66.75 53.2503V8.65479C36.9435 11.7301 20.7761 31.8791 22.646 53.2503H66.75Z" fill="#F4F1ED"/>
<path d="M116.391 41.8921H137.899C139.556 41.8921 140.9 43.2814 140.9 44.9953V66.2985C140.9 68.0124 139.556 69.4017 137.899 69.4017H116.391C114.734 69.4017 113.39 68.0124 113.39 66.2985V44.9953C113.39 43.2814 114.734 41.8921 116.391 41.8921Z" fill="white"/>
<path d="M116.29 37.7448C114.621 37.7448 113.268 36.3915 113.268 34.7222V15.3033C122.25 18.3033 130.664 21.9754 140.975 27.1085V34.7222C140.975 36.3915 139.622 37.7448 137.952 37.7448H116.29Z" fill="white"/>
<path d="M90.6547 11.3347L105 25.8748L108.228 31.2326L103.707 33.6438L100.875 29.2498L99.5149 28.9097C98.4372 28.6403 97.4391 28.1183 96.6031 27.3867L94.8751 25.8748L93.6477 26.8311C92.8515 27.4514 91.718 27.3813 91.0043 26.6676L89.4986 25.1618C88.5609 24.2242 88.0341 22.9524 88.0341 21.6263L88.0341 21.4133C88.0341 19.7126 89.1095 18.1978 90.7151 17.637L90.7501 17.6248L88.1251 14.9998L85.616 15.634C85.0418 15.7791 84.4335 15.6882 83.9269 15.3815C82.3234 14.4107 82.5766 12.0108 84.3475 11.3962L86.9876 10.4798C88.2725 10.0338 89.6994 10.3664 90.6547 11.3347Z" fill="#FFE4DD"/>
<path fill-rule="evenodd" clip-rule="evenodd" d="M87.4289 11.6362C88.1674 11.3798 89.1741 11.7418 89.7231 12.2982L103.807 26.8015L106.128 30.6529L104.22 31.6705L102.136 28.4372C101.929 28.1168 101.609 27.8871 101.239 27.7946L99.4687 27.3521C98.8914 27.2078 98.3567 26.9281 97.9088 26.5362L95.8629 24.746C95.3217 24.2724 94.5205 24.2496 93.9532 24.6916L92.3773 25.9194L90.1931 23.7351C89.7711 23.3132 89.5341 22.7409 89.5341 22.1442L89.5341 20.7034C89.5341 20.0656 89.6973 19.5963 90.2994 19.386L91.0047 19.1396C91.4919 18.9695 91.8574 18.5608 91.9724 18.0577C92.0874 17.5546 91.9357 17.0278 91.5708 16.6629L89.0951 14.1921C88.7215 13.8186 88.179 13.6691 87.6668 13.7985L85.384 14.3404C84.5072 14.562 83.9248 12.908 84.7498 12.6216L87.4289 11.6362ZM91.7225 10.2812C90.3609 8.90121 88.3271 8.4271 86.4957 9.0628L83.8556 9.97916C80.8849 11.0103 80.46 15.0362 83.15 16.6647C83.9998 17.1792 85.0204 17.3318 85.9835 17.0883L87.6668 16.6629L88.2064 17.2025C87.1693 18.0405 86.5341 19.317 86.5341 20.7034L86.5341 22.1442C86.5341 23.5365 87.0872 24.8719 88.0718 25.8565L90.256 28.0407C91.3265 29.1112 93.0268 29.2163 94.2211 28.2859L94.8197 27.8195L95.9333 28.7939C96.7395 29.4993 97.7019 30.0027 98.7411 30.2625L99.9357 30.5612L102.446 34.4565C102.869 35.1125 103.724 35.3347 104.413 34.9674L108.934 32.5562C109.297 32.3626 109.565 32.0283 109.674 31.6317C109.784 31.2351 109.725 30.8109 109.513 30.4585L106.285 25.1007C106.224 24.9994 106.151 24.9056 106.068 24.8214L91.7225 10.2812Z" fill="#242424"/>
<path d="M60.3187 34.7577C58.137 35.2145 56.0235 35.9918 53.9031 36.8236C41.741 41.5975 40.041 47.7235 39.7356 60.4269C39.5924 66.5221 40.3084 72.6922 43.1787 78.1192C44.6104 80.8259 47.3239 83.1712 47.2557 86.4574C47.2557 86.1438 83.1994 85.2302 86.6765 85.1007C86.6765 85.1007 86.9185 55.9603 87.4691 55.1554C88.0196 54.3504 117.381 58.5218 119.625 55.1554C121.601 52.1913 109.957 30.0882 107.146 24.8477C106.839 24.2762 106.085 24.1549 105.604 24.5895C104.051 25.9917 100.967 28.7485 99.3942 29.9659C99.0008 30.2706 98.8322 30.8073 99.0344 31.262C101.414 36.6128 106.017 44.447 105.75 44.6251C105.469 44.8122 94.763 43.3731 90.8356 41.1288C86.9081 38.8846 82.6199 37.6008 78.2496 36.1077C72.434 34.1237 66.373 33.5101 60.3119 34.7714L60.3187 34.7577Z" fill="#FEEB29"/>
<path d="M82.0589 18.5547C83.0325 13.178 81.0088 9.30561 81.0088 9.30561C78.7244 4.1218 68.6288 5.61832 64.6273 8.01737C60.6259 10.4241 60.9172 16.5568 62.7569 20.9306C63.5848 22.9054 63.3242 25.2659 62.7799 27.2792C61.4732 32.0199 58.847 37.6319 54.0857 39.4457C55.2892 42.2228 60.4686 41.7013 63.3432 42.8121C64.4164 43.2287 65.5598 42.2356 66.7096 42.251C73.7773 42.3822 75.6866 39.4457 75.6866 39.4457C75.6866 39.4457 71.4403 35.8343 73.9651 33.3095C74.862 31.921 77.2833 31.5528 78.8777 31.4679C80.6255 31.3676 80.7788 30.2182 80.9781 28.8066C81.1774 27.4026 81.375 25.8751 81.375 25.8751L82.7677 25.318C84.1914 24.7485 84.7944 23.4264 84.0646 22.0779C83.1785 20.4406 82.0589 18.5547 82.0589 18.5547Z" fill="#FFE4DD"/>
<path fill-rule="evenodd" clip-rule="evenodd" d="M71.9229 3.14129C75.8399 3.12224 79.9115 4.66785 82.4354 8.42427C84.1724 11.0095 84.2066 14.7261 83.6303 18.2674C83.7397 18.4543 83.8756 18.6876 84.0283 18.9518C84.4219 19.6331 84.9312 20.5276 85.3838 21.3639C85.7975 22.1284 85.9893 22.9383 85.8497 23.7534C85.7113 24.5617 85.2804 25.1801 84.814 25.6302C84.2265 26.1972 83.4571 26.6096 82.7867 26.9108C82.7845 26.9419 82.7823 26.9735 82.78 27.0056C82.7666 27.1944 82.752 27.4007 82.7334 27.6301C82.6837 28.2464 82.6083 28.9713 82.4395 29.6656C82.2734 30.3487 81.9878 31.1308 81.4333 31.7733C80.8353 32.4662 80.0008 32.9059 78.9637 32.9654L78.9574 32.9657C76.7563 33.0829 75.4917 33.9879 75.0953 34.8015C74.7851 35.4382 74.7327 36.6652 76.6584 38.303C77.233 38.7917 77.3553 39.631 76.9442 40.2633C75.9367 41.8128 73.9149 42.7881 71.8629 43.398C69.7212 44.0346 67.1725 44.3814 64.674 44.4259C62.1807 44.4704 59.6473 44.2154 57.5494 43.5892C55.5373 42.9887 53.5249 41.9238 52.7094 40.0421C52.5465 39.6664 52.5444 39.2404 52.7035 38.863C52.8626 38.4856 53.169 38.1897 53.5517 38.0439C55.5293 37.2905 57.1521 35.7131 58.463 33.6543C59.7711 31.6 60.7038 29.1654 61.3328 26.8843C61.671 25.6304 61.6121 24.2631 61.3275 22.733C61.1292 21.667 60.8472 20.6309 60.549 19.5354C60.4061 19.0106 60.2596 18.4722 60.1167 17.9103C59.2833 14.6322 58.6381 10.7557 61.6437 7.42746C64.0972 4.71064 68.0407 3.16016 71.9229 3.14129ZM80.7691 19.3203C80.5847 19.0097 80.5186 18.6429 80.5829 18.2874C81.2342 14.6904 81.0695 11.7707 79.9453 10.0974C78.0992 7.34971 75.0811 6.12597 71.9375 6.14125C68.7589 6.15671 65.6708 7.44426 63.8702 9.43812C61.992 11.5179 62.2028 13.9402 63.0242 17.1711C63.1401 17.6268 63.2707 18.1073 63.4053 18.6026C63.7196 19.759 64.0558 20.9957 64.2769 22.1844C64.6011 23.9274 64.7334 25.801 64.228 27.6706L64.226 27.6777C63.5484 30.1363 62.5149 32.8765 60.9936 35.2656C59.8401 37.0771 58.3685 38.7443 56.5084 39.9061C56.9733 40.1944 57.5969 40.4726 58.4074 40.7145C60.1253 41.2273 62.333 41.4672 64.6206 41.4264C66.903 41.3857 69.175 41.0672 71.0082 40.5224C72.1217 40.1914 72.9618 39.8099 73.5475 39.4308C71.9429 37.5504 71.4559 35.4222 72.3983 33.4877C73.4537 31.3212 75.9964 30.12 78.7942 29.9702C79.0156 29.957 79.0933 29.893 79.1622 29.8132C79.2749 29.6826 79.4112 29.4226 79.5244 28.9569C79.6349 28.5025 79.6961 27.972 79.7432 27.3888C79.7555 27.2362 79.7672 27.0718 79.7793 26.9027C79.809 26.4874 79.8406 26.0444 79.8874 25.6826C79.9571 25.1435 80.3131 24.6843 80.8179 24.4824C81.6868 24.1348 82.3624 23.8269 82.7307 23.4715C82.8791 23.3283 82.8913 23.2557 82.8927 23.2474C82.8942 23.2386 82.8987 23.2073 82.8853 23.142C82.8712 23.073 82.8352 22.9577 82.7454 22.7917C82.3119 21.9908 81.8183 21.1236 81.4307 20.4526C81.2374 20.1181 81.0715 19.8342 80.9541 19.6342C80.8954 19.5343 80.8489 19.4554 80.8172 19.4016L80.7691 19.3203Z" fill="#242424"/>
<path d="M71.3177 17.464C72.4901 22.6054 82.875 25.125 82.875 25.125C83.25 25.2104 83.5148 35.0783 80.8792 35.4779C79.9505 35.6154 78.9609 35.5466 78.0397 35.4244C75.189 35.0449 64.6723 29.8952 67.5723 25.2104C69.1329 22.7047 68.6152 19.8781 68.6152 19.8781C68.0143 18.2168 67.6828 17.1653 65.9279 16.4556C65.4179 16.2494 63.5756 16.0278 63.3777 18.1592C63.0838 21.3239 65.3066 22.8942 63.0623 24.0163C59.1349 17.5641 57.3136 11.6045 60.188 7.57097C63.0623 3.53746 69.2368 3.34137 74.5643 4.09845C81.4081 5.06102 83.1402 10.5733 81.6634 10.5733C80.0038 10.5809 76.2812 7.7314 70.762 10.2601C70.0997 10.558 71.8658 12.1317 71.6983 15.0958C71.6374 16.1653 71.4547 16.9675 71.3177 17.464Z" fill="#242424"/>
<path d="M74.6971 74.5828C74.8675 74.426 75.0652 74.3032 75.2834 74.2282C75.972 73.9896 76.7083 74.2623 77.4174 74.4123C79.04 74.7464 80.7036 74.4464 82.2922 74.0851C83.908 73.7101 85.5034 73.2942 87.126 72.9192C87.876 72.7488 88.7146 72.4147 89.485 72.3806C90.0236 72.3533 90.5963 72.7965 91.0804 73.0556C93.487 74.3374 95.7097 76.0282 97.6596 78.0326C98.6754 79.0757 99.6163 80.2075 100.469 81.4211C97.7755 81.387 95.0824 81.3597 92.3962 81.3256C93.8757 81.387 95.3551 81.4552 96.8414 81.5165C92.4848 80.6711 87.9578 80.9438 83.7103 82.3142C84.4398 82.0756 85.3193 81.9597 86.0488 81.721C82.7626 81.6392 77.1924 81.6256 73.9062 81.5438C73.2722 81.5301 74.7176 81.312 74.213 80.8893C73.7699 80.5211 73.5449 79.9143 73.4835 79.3144C73.4222 78.7144 73.5108 78.1008 73.5926 77.5008C73.6881 76.8463 73.7835 76.1781 74.0358 75.5782C74.1926 75.2032 74.4244 74.8487 74.7107 74.5896L74.6971 74.5828Z" fill="#FFE4DD"/>
<path fill-rule="evenodd" clip-rule="evenodd" d="M92.4385 72.5245C90.3725 70.7696 86.9209 71.4275 86.7935 71.4565L86.7882 71.4577C85.965 71.6479 85.1505 71.8481 84.3481 72.0455L84.3091 72.0551C83.5181 72.2497 82.739 72.4414 81.9565 72.623C81.5894 72.7062 81.0196 72.7694 80.2547 72.8322C80.0153 72.8518 79.7567 72.8714 79.4874 72.8918C78.9485 72.9326 78.3666 72.9767 77.8091 73.0309C76.9644 73.113 76.0758 73.2266 75.2866 73.4157C74.547 73.5929 73.6641 73.8865 73.0245 74.4702C72.864 74.6167 72.7372 74.7964 72.6529 74.9967C72.3039 75.827 71.9377 77.2197 71.8135 78.556C71.751 79.2284 71.7421 79.9621 71.8627 80.643C71.9779 81.2931 72.2513 82.119 72.9476 82.6975C73.2084 82.9142 73.5349 83.0361 73.8739 83.0434C75.4886 83.0781 79.7601 83.0707 84.6151 83.0622C90.2025 83.0525 96.5628 83.0415 100.536 83.0918C101.1 83.0989 101.619 82.79 101.882 82.292C102.145 81.794 102.107 81.1907 101.783 80.7298C100.901 79.4744 99.8231 78.1043 98.7347 76.9866M89.2072 74.0357C89.4786 74.0259 89.7883 74.0654 90.3725 74.378L90.3752 74.3795C92.6377 75.5845 94.7369 77.1794 96.5843 79.0785L96.5849 79.0791C96.8827 79.3849 97.1839 79.7172 97.4825 80.0658C93.6402 80.0454 88.867 80.0544 84.572 80.0625C80.4732 80.0702 76.8098 80.0771 74.8064 80.0568C74.7592 79.7433 74.7549 79.3251 74.8006 78.8336C74.8783 77.9979 75.081 77.1417 75.2714 76.5602C75.42 76.4948 75.649 76.4138 75.9856 76.3332C76.5708 76.193 77.2957 76.095 78.0995 76.0168C78.6279 75.9655 79.1478 75.9261 79.6655 75.887C79.9439 75.8659 80.2217 75.8449 80.4999 75.8221C81.2469 75.7609 82.0208 75.685 82.6248 75.5476L82.6312 75.5462C83.4343 75.3598 84.2311 75.1638 85.0175 74.9703L85.0648 74.9587C85.8689 74.7608 86.6625 74.5658 87.461 74.3813C87.6743 74.3328 87.8592 74.2895 88.0224 74.2513C88.5908 74.1181 88.8945 74.047 89.2072 74.0357Z" fill="#242424"/>
<path d="M66.7884 83.3345L58.2931 83.989L50.2499 84.8085C49.5842 87.6068 49.4076 89.2169 50.6249 92.4029C55.1881 95.1639 64.0492 99.6616 76.8749 102.375C96.3749 106.5 122.009 102.375 122.009 102.375C123.549 92.3967 123.188 91.7712 115.134 89.2183C104.293 85.7821 83.1921 83.989 83.1921 83.989L67.3815 83.4095L67.2247 83.389V83.3345H66.7884Z" fill="#242424"/>
<path d="M76.8749 82.5H70.8749L66.2289 80.6075V70.5308H78.1533L76.8749 82.5Z" fill="#FEEB29"/>
<path d="M59.8644 48.8176H77.6453L79.8948 38.6429C79.8948 38.6429 75.7159 35.6391 75 36.0002C69.723 41.3932 55.875 36.3615 55.875 36.3615L50.7195 39.765L59.8644 48.8245V48.8176Z" fill="#FEEB29"/>
<path d="M147.914 87.841C147.948 88.0592 147.975 88.2638 147.989 88.4751L149.011 94.5L144.52 96.375L143.073 87.8478H43.875L37.5 82.4004H152.666C154.091 82.4004 155.25 83.6003 155.25 85.073V85.1684C155.25 86.6411 154.091 87.841 152.666 87.841H147.914Z" fill="#E2DBCE"/>
<path d="M86.1068 76.96H134.343C135.507 76.96 136.45 77.9509 136.45 79.1732C136.45 80.3956 135.507 81.3864 134.343 81.3864H86.1068C84.9433 81.3864 84.0001 80.3956 84.0001 79.1732C84.0001 77.9509 84.9433 76.96 86.1068 76.96Z" fill="white"/>
<path fill-rule="evenodd" clip-rule="evenodd" d="M134.343 78.4288C134.678 78.4288 134.95 78.8209 134.95 79.1729C134.95 79.5249 134.678 79.9436 134.343 79.9436H86.1068C85.7717 79.9436 85.5001 79.5249 85.5001 79.1729C85.5001 78.8209 85.7717 78.4288 86.1068 78.4288C86.1068 78.4288 134.008 78.4288 134.343 78.4288ZM137.95 79.1729C137.95 77.0803 136.335 75.3838 134.343 75.3838H86.1068C84.1148 75.3838 82.5001 77.0803 82.5001 79.1729C82.5001 81.2656 84.1149 82.962 86.1068 82.962H134.343C136.335 82.962 137.95 81.2656 137.95 79.1729Z" fill="#242424"/>
<path d="M105.565 76.8711H136.272C137.363 76.8711 138.345 76.1893 138.727 75.153L147.944 53.4314C148.592 51.6997 147.324 49.8521 145.49 49.8521H114.782C113.691 49.8521 112.71 50.5338 112.328 51.5701L103.11 73.2918C102.462 75.0235 103.731 76.8711 105.565 76.8711Z" fill="white"/>
<path fill-rule="evenodd" clip-rule="evenodd" d="M110.934 51.0138C111.543 49.4106 113.075 48.3521 114.782 48.3521H145.49C148.389 48.3521 150.357 51.2619 149.349 53.9569C149.342 53.9772 149.334 53.9974 149.325 54.0174L140.12 75.7093C139.512 77.3125 137.98 78.3711 136.272 78.3711H105.565C102.665 78.3711 100.697 75.4613 101.705 72.7663C101.713 72.746 101.721 72.7258 101.729 72.7058L110.934 51.0138ZM114.782 51.3521C114.322 51.3521 113.901 51.6404 113.735 52.0887C113.727 52.1114 113.718 52.1338 113.709 52.1561L104.506 73.8419C104.24 74.6024 104.804 75.3711 105.565 75.3711H136.272C136.733 75.3711 137.154 75.0828 137.319 74.6345C137.327 74.6118 137.336 74.5893 137.346 74.5671L146.548 52.8813C146.815 52.1207 146.251 51.3521 145.49 51.3521H114.782Z" fill="#242424"/>
</svg>
