<svg width="608" height="240" viewBox="0 0 608 240" fill="none" xmlns="http://www.w3.org/2000/svg">
<ellipse cx="303.545" cy="118.654" rx="272.553" ry="107.486" fill="#DBEAFD"/>
<path d="M39.5788 145.525C69.8351 191.884 176.546 226.139 303.545 226.139C430.544 226.139 537.255 191.884 567.511 145.525H39.5788Z" fill="#E3F2DD"/>
<path d="M232.276 106.781V109.51C232.276 110.568 231.428 111.427 230.374 111.433C225.39 111.46 212.156 111.52 209.594 111.422C208.92 111.396 208.386 110.84 208.386 110.163V99.9976C208.386 99.4429 207.938 98.9932 207.385 98.9932H206.78H197.691H197.123C196.57 98.9932 196.121 99.4429 196.121 99.9976V106.036C196.121 106.591 195.673 107.04 195.12 107.04H190.053C189.504 107.04 189.058 106.597 189.052 106.046L188.309 59.8163C188.298 58.712 187.401 57.8235 186.3 57.827L158.779 57.9149C157.67 57.9184 156.775 58.825 156.783 59.9372L157.442 120.751C157.446 121.325 156.971 121.786 156.399 121.762L143.726 121.762C143.187 121.74 142.763 121.293 142.767 120.751V99.4291L142.858 76.1513C142.859 76.013 142.845 75.875 142.817 75.7395L140.633 65.0646C140.573 64.7725 140.449 64.4974 140.27 64.2593L133.427 55.1531C133.048 54.6496 132.456 54.3535 131.828 54.3535H131.161C130.511 54.3535 129.901 54.6703 129.526 55.203L122.967 64.5131C122.826 64.7124 122.723 64.9357 122.663 65.1721L120.018 75.4892C119.973 75.6621 119.952 75.8401 119.955 76.0186L120.322 101.498C120.33 102.069 119.862 102.532 119.293 102.516L114.34 102.378C113.803 102.363 113.373 101.925 113.367 101.386L113.339 99.017C113.333 98.4644 112.883 98.0209 112.332 98.0242L89.3285 98.1652C88.2256 98.1719 87.3357 99.0719 87.338 100.178L87.3626 111.823V121.762L55.2131 121.325H54.2277C53.6747 121.325 53.2264 120.876 53.2264 120.321V119.165L53.17 117.368C53.1565 116.936 53.0039 116.519 52.7351 116.18L40.5107 100.778C40.2432 100.441 39.8371 100.245 39.4077 100.245C39.0676 100.245 38.739 100.368 38.4824 100.592C38.4824 100.592 35.4505 102.191 33.3908 103.778C20.9148 142.645 59.7824 171.436 93.425 186.707L259.398 188.71L325.755 195.805C332.371 196.513 339.032 196.695 345.676 196.35L511.501 187.751C557.863 166.158 572.258 145.044 575.617 125.209H559.825L558.044 120.624C557.9 120.254 557.546 120.011 557.15 120.011H541.105L540.528 120.041C540.197 120.059 539.898 120.247 539.738 120.538L537.446 124.711C537.277 125.018 536.955 125.209 536.606 125.209H530.735C530.205 125.209 529.776 124.778 529.776 124.247V117.136H502.503C501.974 117.136 501.544 117.566 501.544 118.098V130.935C501.544 131.466 501.115 131.897 500.586 131.897H492.839C492.309 131.897 491.88 131.466 491.88 130.935V125.862C491.88 125.331 491.451 124.9 490.921 124.9H472.862C472.333 124.9 471.903 125.331 471.903 125.862V141.547C471.903 142.076 471.477 142.506 470.95 142.509L462.802 142.556C462.271 142.559 461.838 142.127 461.838 141.594V129.873C461.838 129.598 461.72 129.336 461.515 129.153L461.242 128.911C461.065 128.754 460.836 128.667 460.599 128.669L454.572 128.717C454.034 128.721 453.598 128.28 453.606 127.741L453.739 118.706C453.747 118.169 453.315 117.73 452.78 117.73H443.26H417.542C416.437 117.73 415.542 118.625 415.542 119.73V132.193C415.542 132.724 415.113 133.154 414.584 133.155L410.126 133.16C409.021 133.161 408.124 132.265 408.124 131.16V83.8889C408.124 82.7843 407.229 81.8889 406.124 81.8889H357.054C355.95 81.8889 355.054 82.7843 355.054 83.8889V109.057C355.054 110.162 354.159 111.057 353.054 111.057H344.04V105.015H315.514V104.278C315.514 103.174 314.625 102.276 313.523 102.27L309.646 102.246C308.575 102.24 307.699 101.39 307.657 100.317L307.537 97.2609C307.494 96.1748 306.598 95.3198 305.514 95.3315L234.179 95.4523C233.075 95.4641 232.188 96.3702 232.198 97.4778L232.276 106.781Z" fill="white"/>
<path d="M48.9777 90.9884C46.3242 88.7299 51.7011 87.8899 55.3323 88.2148C54.7193 86.5507 55.2935 85.053 57.1401 84.2685C59.0798 83.4443 61.9506 83.6186 64.6895 84.5537C64.5188 83.3888 65.2094 82.4062 66.5594 82.1288C67.8707 81.8594 69.4457 82.3507 70.6018 83.27C72.4717 79.1888 77.034 76.3201 82.1936 76.4311C87.0585 76.5341 91.0621 79.2602 92.6139 83.056C95.4071 82.1922 98.2779 82.0575 100.311 82.8737C102.708 83.8405 103.321 85.8692 102.227 88.0484C106.2 87.565 114.191 88.722 111.941 90.9805H48.9932L48.9777 90.9884Z" fill="white"/>
<path d="M365.677 60.2775C363.023 58.019 368.4 57.179 372.031 57.5039C371.419 55.8398 371.993 54.342 373.839 53.5575C375.779 52.7334 378.65 52.9077 381.389 53.8428C381.218 52.6779 381.909 51.6952 383.259 51.4179C384.57 51.1484 386.145 51.6398 387.301 52.559C389.171 48.4779 393.733 45.6092 398.893 45.7202C403.758 45.8232 407.761 48.5492 409.313 52.3451C412.106 51.4813 414.977 51.3466 417.01 52.1628C419.407 53.1296 420.02 55.1583 418.926 57.3375C422.899 56.8541 430.891 58.0111 428.641 60.2696H365.692L365.677 60.2775Z" fill="white"/>
<path d="M420.195 96.9036C414.642 92.3938 425.891 90.7026 433.487 91.3591C432.211 88.0298 433.412 85.0321 437.268 83.467C441.327 81.8156 447.328 82.1671 453.051 84.0373C452.698 81.7029 454.144 79.7398 456.961 79.1893C459.71 78.6521 463.002 79.627 465.412 81.4707C469.316 73.3066 478.874 67.5765 489.647 67.7954C499.816 68.001 508.192 73.4459 511.437 81.0463C517.282 79.3153 523.276 79.0434 527.532 80.6881C532.542 82.6181 533.832 86.6835 531.537 91.0474C539.839 90.0725 556.559 92.4004 551.841 96.9102H420.202L420.195 96.9036Z" fill="white"/>
<path d="M93.3209 136.332C96.275 129.834 102.598 126.112 109.09 127.631C115.513 129.15 120.146 135.361 120.875 142.601C129.163 137.505 137.925 145.907 139.75 153.857C141.699 162.346 137.772 170.518 130.991 172.099C129.895 172.354 128.807 172.42 127.715 172.317C129.283 176.709 130.193 181.828 128.583 185.728C126.986 189.597 122.599 192.551 118.403 193.387C114.791 194.106 110.692 192.981 104.792 191.115C83.6435 183.829 66.0222 172.579 57.8648 165.199C58.3526 162.111 62.2348 156.472 68.0521 152.953C66.155 144.912 70.2148 136.504 77.7508 133.556C83.1989 131.417 89.0897 132.685 93.3209 136.332Z" fill="#E3F2DD"/>
<path d="M500.531 133.315C506.911 131.38 513.462 134.686 516.829 140.978C520.816 137.065 526.613 135.42 532.188 137.202C539.898 139.658 544.493 147.785 543.119 155.932C547.4 158.157 549.71 159.707 551.149 163.279C529.076 181.78 516.605 186.225 488.769 196.995C484.077 194.618 478.909 191.107 477.733 188.711C475.874 184.923 483.552 183.595 484.833 179.111C483.749 179.284 482.659 179.289 481.55 179.105C474.681 177.966 470.234 170.065 471.63 161.467C472.938 153.416 481.138 144.465 489.738 149.015C489.997 141.743 494.219 135.245 500.531 133.315Z" fill="#E3F2DD"/>
<path d="M425.895 176.488C426.411 170.976 423.59 166.034 418.635 164.555C413.727 163.101 408.215 165.496 404.934 170.088C401.32 163.464 392.185 165.742 387.893 170.39C383.309 175.352 382.803 182.366 386.758 186.043C387.397 186.637 388.103 187.1 388.878 187.452C386.13 189.804 383.545 192.898 383.125 196.143C382.71 199.363 384.523 203.042 387.025 205.222C389.179 207.098 392.371 207.92 397.062 208.938C414.103 212.185 431.232 210.581 438.809 207.562C439.671 205.295 439.056 202.024 436.497 197.413C440.872 192.732 441.38 185.509 437.445 180.62C434.602 177.081 430.149 175.664 425.895 176.488Z" fill="#E3F2DD"/>
<path d="M171.958 162.146C172.625 155.018 168.976 148.625 162.567 146.712C156.219 144.831 145.196 144.567 140.047 153.868C135.373 145.301 128.356 148.247 122.804 154.258C116.875 160.677 116.22 169.749 121.336 174.505C122.162 175.273 123.076 175.873 124.079 176.328C120.524 179.37 117.18 183.372 116.638 187.569C116.1 191.734 120.842 191.651 124.079 194.471C126.864 196.897 130.993 197.96 137.06 199.278C159.102 203.477 178.861 206.243 188.66 202.339C189.775 199.407 188.98 195.175 185.67 189.212C191.33 183.157 191.986 173.815 186.896 167.491C183.219 162.913 177.459 161.08 171.958 162.146Z" fill="#E3F2DD"/>
<path d="M209.62 167.693C210.133 162.216 207.329 157.304 202.406 155.834C197.528 154.39 192.05 156.769 188.79 161.333C185.199 154.75 176.121 157.014 171.855 161.633C167.301 166.564 166.797 173.534 170.727 177.188C171.362 177.778 172.064 178.239 172.835 178.589C170.104 180.926 167.534 184 167.118 187.225C166.705 190.425 168.507 194.081 170.993 196.247C173.134 198.111 176.306 198.928 180.967 199.94C197.902 203.167 221.219 201.683 228.748 198.684C229.605 196.431 225.799 190.204 220.155 188.487C224.504 183.836 225.008 176.658 221.097 171.799C218.272 168.282 213.847 166.874 209.62 167.693Z" fill="#E3F2DD"/>
<path d="M165.608 173.808C166.109 168.463 163.372 163.67 158.567 162.235C153.807 160.825 148.461 163.148 145.279 167.601C141.774 161.177 132.915 163.387 128.752 167.894C124.306 172.707 123.815 179.509 127.651 183.075C128.27 183.651 128.956 184.101 129.708 184.442C119.334 195.429 130.999 200.145 142.932 199.636C161.655 198.837 180.84 204.914 175.89 194.103C180.134 189.563 180.626 182.558 176.809 177.816C174.053 174.384 169.734 173.009 165.608 173.808Z" fill="#D2E9CA"/>
<path d="M143.757 203.874C165.15 211.619 200.378 209.346 213.814 201.668C152.874 187.273 133.68 181.995 120.244 183.914C108.809 186.738 120.785 195.558 143.757 203.874Z" fill="#E3F2DD"/>
<path d="M471.976 161.359C472.59 154.796 466.359 149.205 460.459 147.444C454.614 145.712 447.239 148.415 443.332 153.883C439.029 145.996 428.15 148.708 423.039 154.243C417.581 160.152 416.978 168.504 421.687 172.883C422.448 173.59 423.29 174.142 424.213 174.561C420.94 177.362 417.861 181.046 417.362 184.911C416.867 188.745 419.026 193.126 422.006 195.722C424.571 197.956 428.372 198.935 433.958 200.147C454.251 204.014 474.649 202.103 483.671 198.509C484.698 195.809 483.965 191.913 480.918 186.423C486.129 180.849 486.733 172.247 482.047 166.425C478.662 162.211 477.041 160.378 471.976 161.359Z" fill="#E3F2DD"/>
<path d="M441.568 172.784C441.08 167.578 443.746 162.909 448.426 161.512C453.063 160.138 458.27 162.4 461.369 166.738C467.655 160.615 474.691 164.147 478.745 168.537C482.812 172.94 482.038 185.013 475.577 187.945C485.681 198.647 475.278 198.437 463.655 197.941C445.418 197.163 426.731 203.082 431.553 192.551C427.419 188.13 426.94 181.306 430.658 176.688C433.343 173.344 437.55 172.006 441.568 172.784Z" fill="#D2E9CA"/>
<path d="M410.454 180.501C409.967 175.294 412.632 170.626 417.313 169.228C421.949 167.855 427.156 170.117 430.256 174.455C436.542 168.332 443.577 171.864 447.632 176.254C451.699 180.657 450.924 192.73 444.464 195.662C454.568 206.364 444.165 206.154 432.541 205.658C414.305 204.879 395.618 210.799 400.44 200.268C396.306 195.846 395.826 189.023 399.544 184.404C402.23 181.061 406.436 179.722 410.454 180.501Z" fill="#D2E9CA"/>
<path d="M438.387 210.305C416.994 218.049 377.536 205.026 390.403 193.99C435.508 193.03 478.126 181.994 491.561 183.913C502.996 186.737 481.094 200.708 438.387 210.305Z" fill="#E3F2DD"/>
<path d="M218.712 115.171L274.279 126.975C279.897 128.023 290.202 120.261 284.822 112.741C294.555 109.489 290.868 90.8653 280.612 92.6388C283.012 85.8552 279.144 76.5594 269.724 77.2797C268.355 60.7938 255.94 46.0685 241.001 54.9087C235.242 52.1323 225.451 53.8474 219.674 60.9261C213.898 68.0048 218.14 81.6954 218.14 81.6954C218.14 81.6954 210.232 85.9519 209.792 91.904C209.352 97.8562 215.868 99.6671 215.868 99.6671C215.868 99.6671 211.092 101.309 211.314 107.31C211.535 113.312 218.712 115.171 218.712 115.171Z" fill="#242424"/>
<path fill-rule="evenodd" clip-rule="evenodd" d="M236.76 63.5336C234.872 60.7827 228.438 62.2177 224.164 68.1595C220.902 72.6943 221.522 85.1554 221.999 90.8029C222.158 92.6944 222.734 94.5124 223.619 96.1919L225.506 99.7738C227.213 103.015 230.942 104.636 234.477 103.674L237.885 102.746L237.967 103.847C238.096 105.563 237.367 107.244 235.814 107.987C230.999 110.292 222.169 112.467 217.074 113.257L229.286 124.331C245.238 126.527 257.539 122.441 267.225 113.878C263.284 112.57 258.156 108.145 255.871 104.812C253.586 101.48 255.124 87.7162 255.124 87.7162L255.031 87.7263L255.553 80.6607C242.992 81.8248 239.705 71.8669 237.921 66.4636C237.481 65.1322 237.133 64.0774 236.76 63.5336Z" fill="#B1927B"/>
<path d="M224.164 68.1595L222.802 67.1798L222.802 67.1798L224.164 68.1595ZM236.76 63.5336L238.143 62.5843L238.143 62.5843L236.76 63.5336ZM221.999 90.8029L220.327 90.944L220.327 90.944L221.999 90.8029ZM223.619 96.1919L222.134 96.9738L222.134 96.9738L223.619 96.1919ZM225.506 99.7738L226.99 98.9918L226.99 98.9918L225.506 99.7738ZM234.477 103.674L234.036 102.055L234.477 103.674ZM237.885 102.746L239.558 102.621C239.521 102.122 239.262 101.665 238.853 101.376C238.444 101.087 237.927 100.996 237.444 101.127L237.885 102.746ZM237.967 103.847L236.294 103.972L237.967 103.847ZM235.814 107.987L235.09 106.474L235.814 107.987ZM217.074 113.257L216.817 111.599C216.178 111.698 215.653 112.155 215.467 112.775C215.281 113.394 215.468 114.065 215.947 114.499L217.074 113.257ZM229.286 124.331L228.159 125.574C228.409 125.801 228.722 125.947 229.057 125.993L229.286 124.331ZM267.225 113.878L268.336 115.135C268.786 114.737 268.989 114.13 268.868 113.542C268.748 112.953 268.323 112.474 267.753 112.285L267.225 113.878ZM255.124 87.7162L256.791 87.9026C256.848 87.3966 256.672 86.8924 256.312 86.5318C255.953 86.1713 255.449 85.9934 254.943 86.0482L255.124 87.7162ZM255.031 87.7263L253.358 87.6027C253.321 88.0994 253.507 88.5867 253.865 88.9328C254.223 89.2789 254.716 89.448 255.212 89.3943L255.031 87.7263ZM255.553 80.6607L257.226 80.7843C257.262 80.2922 257.08 79.809 256.728 79.4633C256.376 79.1177 255.889 78.9446 255.398 78.9901L255.553 80.6607ZM237.921 66.4636L239.514 65.9377L239.514 65.9377L237.921 66.4636ZM224.164 68.1595L225.526 69.1392C227.476 66.4282 229.867 64.8221 231.866 64.1854C234.014 63.5014 235.078 64.047 235.377 64.4829L236.76 63.5336L238.143 62.5843C236.555 60.2692 233.457 60.1569 230.848 60.9881C228.089 61.8667 225.126 63.949 222.802 67.1798L224.164 68.1595ZM221.999 90.8029L223.671 90.6618C223.435 87.8683 223.167 83.4221 223.355 79.1377C223.45 76.9948 223.657 74.9324 224.025 73.1574C224.4 71.3523 224.912 69.9921 225.526 69.1392L224.164 68.1595L222.802 67.1798C221.784 68.5943 221.151 70.4922 220.74 72.4755C220.322 74.4889 220.102 76.745 220.003 78.9901C219.805 83.4818 220.086 88.09 220.327 90.944L221.999 90.8029ZM223.619 96.1919L225.103 95.4099C224.311 93.906 223.809 92.3044 223.671 90.6618L221.999 90.8029L220.327 90.944C220.507 93.0844 221.157 95.1188 222.134 96.9738L223.619 96.1919ZM225.506 99.7738L226.99 98.9918L225.103 95.4099L223.619 96.1919L222.134 96.9738L224.021 100.556L225.506 99.7738ZM234.477 103.674L234.036 102.055C231.26 102.811 228.331 101.538 226.99 98.9918L225.506 99.7738L224.021 100.556C226.095 104.493 230.624 106.461 234.918 105.293L234.477 103.674ZM237.885 102.746L237.444 101.127L234.036 102.055L234.477 103.674L234.918 105.293L238.326 104.365L237.885 102.746ZM237.885 102.746L236.212 102.871L236.294 103.972L237.967 103.847L239.64 103.721L239.558 102.621L237.885 102.746ZM237.967 103.847L236.294 103.972C236.385 105.183 235.867 106.102 235.09 106.474L235.814 107.987L236.539 109.501C238.867 108.387 239.807 105.943 239.64 103.721L237.967 103.847ZM235.814 107.987L235.09 106.474C230.487 108.677 221.842 110.82 216.817 111.599L217.074 113.257L217.331 114.915C222.497 114.114 231.51 111.908 236.539 109.501L235.814 107.987ZM217.074 113.257L215.947 114.499L228.159 125.574L229.286 124.331L230.413 123.088L218.201 112.014L217.074 113.257ZM229.286 124.331L229.057 125.993C245.464 128.251 258.262 124.041 268.336 115.135L267.225 113.878L266.113 112.621C256.815 120.841 245.012 124.802 229.515 122.669L229.286 124.331ZM267.225 113.878L267.753 112.285C266.06 111.723 263.976 110.432 261.99 108.806C260.016 107.191 258.284 105.365 257.255 103.864L255.871 104.812L254.487 105.761C255.743 107.593 257.718 109.646 259.865 111.403C261.999 113.15 264.45 114.725 266.696 115.47L267.225 113.878ZM255.871 104.812L257.255 103.864C257.129 103.68 256.963 103.316 256.809 102.708C256.66 102.119 256.543 101.396 256.46 100.567C256.293 98.908 256.269 96.954 256.318 95.0575C256.366 93.1689 256.485 91.3767 256.592 90.054C256.645 89.3936 256.695 88.8527 256.732 88.4781C256.751 88.2908 256.766 88.1453 256.776 88.0474C256.781 87.9985 256.785 87.9614 256.788 87.937C256.789 87.9248 256.79 87.9158 256.791 87.91C256.791 87.9071 256.791 87.9051 256.791 87.9038C256.791 87.9032 256.791 87.9028 256.791 87.9026C256.791 87.9025 256.791 87.9025 256.791 87.9024C256.791 87.9024 256.791 87.9026 255.124 87.7162C253.457 87.5299 253.457 87.5301 253.457 87.5303C253.457 87.5305 253.457 87.5308 253.456 87.5311C253.456 87.5318 253.456 87.5326 253.456 87.5336C253.456 87.5357 253.456 87.5386 253.455 87.5424C253.454 87.5499 253.453 87.5606 253.452 87.5746C253.449 87.6025 253.444 87.6431 253.439 87.6958C253.428 87.8011 253.412 87.9545 253.393 88.1502C253.354 88.5413 253.302 89.1016 253.247 89.7837C253.137 91.1457 253.014 93.0027 252.963 94.9715C252.913 96.9325 252.934 99.0442 253.121 100.903C253.215 101.833 253.353 102.732 253.557 103.534C253.756 104.317 254.042 105.112 254.487 105.761L255.871 104.812ZM255.124 87.7162L254.943 86.0482L254.85 86.0583L255.031 87.7263L255.212 89.3943L255.305 89.3842L255.124 87.7162ZM255.553 80.6607L253.88 80.5371L253.358 87.6027L255.031 87.7263L256.704 87.8499L257.226 80.7843L255.553 80.6607ZM237.921 66.4636L236.328 66.9896C237.207 69.6545 238.561 73.8138 241.427 77.1233C244.39 80.5449 248.879 82.9642 255.708 82.3313L255.553 80.6607L255.398 78.9901C249.666 79.5214 246.23 77.5438 243.964 74.9266C241.6 72.1973 240.418 68.676 239.514 65.9377L237.921 66.4636ZM236.76 63.5336L235.377 64.4829C235.442 64.5784 235.565 64.8173 235.747 65.2975C235.92 65.7546 236.104 66.3131 236.328 66.9896L237.921 66.4636L239.514 65.9377C239.298 65.2828 239.089 64.6482 238.885 64.109C238.689 63.593 238.451 63.0326 238.143 62.5843L236.76 63.5336Z" fill="#242424"/>
<path d="M203.684 135.109C205.25 143.605 202.629 151.209 197.83 152.094C193.031 152.978 187.872 146.807 186.306 138.311C184.741 129.815 185.773 121.677 190.571 120.792C195.37 119.908 202.119 126.612 203.684 135.109Z" fill="#ACD4D9"/>
<path d="M162.98 139.005L173.334 94.9435L173.386 73.3816C173.393 70.5826 175.609 68.2886 178.407 68.1853L185.322 67.9299C188.199 67.8237 190.617 70.0697 190.724 72.9465L190.953 79.1593L184.033 95.7339L180.31 128.998L210.821 118.596L216.442 136.73L172.595 148.351C166.89 149.863 161.63 144.751 162.98 139.005Z" fill="#B1927B"/>
<path d="M180.31 128.998L210.821 118.596L216.442 136.73L172.595 148.351C166.89 149.863 161.63 144.751 162.98 139.005L173.334 94.9435L173.386 73.3816C173.393 70.5826 175.609 68.2886 178.407 68.1853L185.322 67.9299C188.199 67.8237 190.617 70.0697 190.724 72.9465L190.953 79.1593L184.033 95.7339L180.31 128.998ZM180.31 128.998C179.699 131.447 179.273 132.827 178.016 135.311" stroke="#242424" stroke-width="5" stroke-linecap="round" stroke-linejoin="round"/>
<path d="M208.925 160.971C208.111 154.419 208.925 147.868 208.925 147.868C203.704 150.014 198.41 151.744 198.41 151.744C204.189 142.046 200.456 124.052 190.572 120.79L211.363 113.467L226.071 111.39C226.071 111.39 224.79 120.154 234.814 121.528C244.837 122.901 259.031 110.661 259.031 110.661L271.97 117.678C279.42 121.718 282.302 130.958 278.898 138.719C274.317 149.164 268.979 163.005 268.979 170.796C268.979 184.445 296 226 296 226C277.439 226 250.5 225 216.5 220.5C216.5 220.5 209.739 167.522 208.925 160.971Z" fill="#ACD4D9"/>
<path d="M167.55 87.0553C168.696 94.2572 173.483 97.8045 176.644 97.7701C179.805 97.7357 199.214 90.8621 201.84 90.232C204.686 89.5492 207.074 87.4729 207.032 84.1522C206.99 80.8314 204.597 78.1695 201.687 78.2065C199.256 78.2374 179.484 72.4706 174.742 72.5309C170.001 72.5912 166.405 79.8534 167.55 87.0553Z" fill="#555551" stroke="#242424" stroke-width="3.90938"/>
<path d="M184.369 86.8408C185.387 94.0443 189.599 97.5989 192.377 97.5694C195.155 97.5399 212.201 90.6963 214.508 90.0703C217.008 89.392 219.103 87.3194 219.061 83.9986C219.019 80.6779 217.188 78.607 214.355 78.0448C212.259 77.6289 194.834 72.2748 190.667 72.3278C186.5 72.3808 183.351 79.6373 184.369 86.8408Z" fill="#555551" stroke="#242424" stroke-width="3.90938"/>
<ellipse cx="7.43339" cy="12.1637" rx="7.43339" ry="12.1637" transform="matrix(-0.999919 0.0127204 0.0127204 0.999919 198.979 72.2224)" fill="#80BDC4" stroke="#242424" stroke-width="3.90938"/>
<ellipse cx="7.82425" cy="12.0582" rx="7.82425" ry="12.0582" transform="matrix(-0.999919 0.0127204 0.0127204 0.999919 182.916 72.7053)" fill="#80BDC4" stroke="#242424" stroke-width="3.90938"/>
<path d="M214.309 77.3709C214.142 77.058 213.848 76.8334 213.504 76.7443L202.716 73.9491C202.104 73.7905 201.622 74.5319 201.978 75.0547C206.163 81.2102 206.105 88.3555 202.383 94.391C202.037 94.9516 202.613 95.7084 203.229 95.4755L213.8 91.4786C214.076 91.3743 214.31 91.1798 214.455 90.9232C217.024 86.3853 216.982 82.3712 214.309 77.3709Z" fill="#C1BFB8"/>
<path d="M186.331 74.6907C181.414 73.5156 176.743 72.5051 174.744 72.5305C170.002 72.5909 166.406 79.8531 167.552 87.0549C168.697 94.2568 173.485 97.8041 176.646 97.7698C178.115 97.7538 183.097 96.2594 188.271 94.6015" stroke="#242424" stroke-width="3.90938"/>
<path d="M184.369 86.841C185.387 94.0445 189.599 97.5992 192.377 97.5697C195.155 97.5402 212.201 90.6966 214.508 90.0705C217.008 89.3922 219.103 87.3196 219.061 83.9989C219.019 80.6781 217.188 78.6072 214.355 78.045C212.259 77.6291 194.834 72.275 190.667 72.328C186.5 72.381 183.351 79.6375 184.369 86.841Z" stroke="#242424" stroke-width="3.90938"/>
<ellipse cx="1.68671" cy="2.81118" rx="1.68671" ry="2.81118" transform="matrix(-0.999919 0.0127204 0.0127204 0.999919 190.869 77.895)" fill="white"/>
<path d="M190.594 87.2037C189.413 89.9819 188.444 92.0129 189.535 92.4764C190.625 92.94 193.362 91.6607 194.543 88.8824C195.724 86.1042 194.902 82.8792 193.811 82.4156C192.721 81.9521 191.775 84.4255 190.594 87.2037Z" fill="#ACD4D9"/>
<ellipse cx="1.68671" cy="2.81118" rx="1.68671" ry="2.81118" transform="matrix(-0.999919 0.0127204 0.0127204 0.999919 174.936 78.0977)" fill="white"/>
<path d="M174.658 87.4063C173.477 90.1845 172.509 92.2155 173.599 92.6791C174.69 93.1427 177.427 91.8633 178.608 89.0851C179.789 86.3069 178.966 83.0819 177.876 82.6183C176.785 82.1547 175.839 84.6281 174.658 87.4063Z" fill="#ACD4D9"/>
<path d="M214.239 99.7312L216.651 101.835C217.569 101.903 217.229 137.247 216.978 156.356C216.904 161.995 222.633 165.855 227.836 163.681L260.553 150.008C260.553 150.008 264.964 141.692 261.606 135.749C258.249 129.806 251.232 130.553 251.232 130.553L234.817 138.614L226.775 83.9472C226.257 80.4265 224.448 77.2243 221.7 74.9635L219.342 73.0239C217.056 71.1433 214.244 70.0165 211.292 69.7984L203.242 69.2036C200.808 69.0239 198.69 70.8506 198.51 73.2838L208.977 77.2211L209.333 89.349C209.45 93.3422 211.229 97.1053 214.239 99.7312Z" fill="#B1927B"/>
<path d="M234.817 138.614L226.775 83.9472C226.257 80.4265 224.448 77.2243 221.7 74.9635L219.342 73.0239C217.056 71.1433 214.244 70.0165 211.292 69.7984L203.242 69.2036C200.808 69.0239 198.69 70.8506 198.51 73.2838L208.977 77.2211L209.333 89.349C209.45 93.3422 211.229 97.1053 214.239 99.7312L216.651 101.835C217.569 101.903 217.229 137.247 216.978 156.356C216.904 161.995 222.633 165.855 227.836 163.681L260.553 150.008C260.553 150.008 264.964 141.692 261.606 135.749C258.249 129.806 251.232 130.553 251.232 130.553L234.817 138.614ZM234.817 138.614C235.676 142.955 234.352 145.684 233.492 147.322" stroke="#242424" stroke-width="5" stroke-linecap="round" stroke-linejoin="round"/>
<path d="M253.423 125.739C260.882 121.805 270.092 125.446 272.845 133.417C274.974 139.58 272.483 146.392 266.881 149.729L249.693 159.964C261.001 153.5 257.825 134.701 242.501 131.5L253.423 125.739Z" fill="#ACD4D9"/>
<path d="M400.478 68.0166L397.602 70.8919L393.096 77.5602L394.822 82.0459C395.66 84.2265 397.43 85.9178 399.647 86.6566L407.126 89.1496L418.448 105.618L432.651 116.598L438.458 128.798L429.695 103.788L417.495 85.4898L418.062 80.7743C418.314 78.6808 417.882 76.575 417.091 74.6205C413.827 66.556 414.338 59.2788 410.553 57.2646C410.211 57.0828 409.816 57.0438 409.43 57.0797L393.898 58.5277C391.397 58.7608 390.641 62.0481 392.788 63.3509L400.478 68.0166Z" fill="#E5BD9C" stroke="#242424" stroke-width="5"/>
<path d="M345.755 56.424C345.431 56.6389 345.004 56.6613 344.605 56.7002C323.621 65.195 341.248 92.8083 352.452 92.8082C362.462 92.8082 349.683 85.2415 349.537 82.9433C349.94 81.3813 350.656 77.2155 352.452 77.5534L358.82 83.5076C360.113 79.8737 355.952 62.9161 368.41 63.4807C374.353 63.7541 382.538 70.4289 387.853 67.1406C388.863 66.5161 389.909 65.5415 389.735 64.3731C388.266 64.1546 384.915 58.0359 383.446 57.8174C386.186 56.2787 391.982 53.0913 391.797 49.5241C391.789 49.3258 391.762 49.1196 391.611 48.9711C391.402 48.7674 391.041 48.7587 390.722 48.7654C383.373 48.938 375.083 48.2478 367.973 47.1143C359.682 45.7925 350.546 49.468 346.261 55.8495L346.258 55.8541C346.122 56.0603 345.976 56.2798 345.755 56.424Z" fill="#242424"/>
<path fill-rule="evenodd" clip-rule="evenodd" d="M374.522 58.4235C378.195 59.9209 383.906 73.8473 383.906 73.8473L383.272 78.5787C383.272 78.5787 385.525 80.1483 385.956 84.0377C386.188 86.1345 385.836 91.4141 385.463 95.8354C385.145 99.5913 381.66 102.219 377.946 101.572L374.834 101.029C374.469 104.846 374.287 109.697 375.466 111.289C377.509 114.048 388.618 117.437 388.618 117.437L373.063 135.621L341.272 116.236C345.868 114.768 348.458 113.365 350.869 111.363C351.542 110.804 352.148 110.157 352.557 109.383C355.182 104.405 353.615 96.727 352.217 91.3393L349.955 90.4815C346.306 88.1829 344.051 85.5781 344.571 81.5436C344.77 79.9915 346.203 78.9786 347.765 78.8795L350.092 78.7317C350.605 78.6991 350.694 77.244 350.817 75.2134C351.034 71.6315 351.36 66.2588 354.318 63.7447C358.954 59.8052 370.849 56.9261 374.522 58.4235Z" fill="#E5BD9C"/>
<path d="M383.906 73.8473L385.844 74.107L385.913 73.5891L385.715 73.1057L383.906 73.8473ZM374.522 58.4235L375.26 56.6135L375.26 56.6135L374.522 58.4235ZM383.272 78.5787L381.335 78.319L381.176 79.5009L382.155 80.1826L383.272 78.5787ZM385.956 84.0377L384.013 84.2528L385.956 84.0377ZM385.463 95.8354L383.515 95.6709L383.515 95.6709L385.463 95.8354ZM377.946 101.572L378.282 99.6461L377.946 101.572ZM374.834 101.029L375.17 99.1035L373.089 98.7408L372.888 100.843L374.834 101.029ZM375.466 111.289L373.895 112.453L373.895 112.453L375.466 111.289ZM388.618 117.437L390.103 118.708L392.044 116.439L389.188 115.568L388.618 117.437ZM373.063 135.621L372.046 137.29L373.467 138.157L374.549 136.892L373.063 135.621ZM341.272 116.236L340.677 114.374L336.601 115.677L340.255 117.905L341.272 116.236ZM350.869 111.363L349.62 109.859L349.62 109.859L350.869 111.363ZM352.557 109.383L354.286 110.295L354.286 110.295L352.557 109.383ZM352.217 91.3393L354.109 90.8483L353.855 89.8699L352.91 89.5115L352.217 91.3393ZM349.955 90.4815L348.913 92.1353L349.079 92.2397L349.262 92.3092L349.955 90.4815ZM344.571 81.5436L342.632 81.2939L344.571 81.5436ZM347.765 78.8795L347.889 80.8302L347.765 78.8795ZM350.092 78.7317L349.968 76.7809L350.092 78.7317ZM350.817 75.2134L352.768 75.3318L350.817 75.2134ZM354.318 63.7447L355.584 65.2341L355.584 65.2341L354.318 63.7447ZM383.906 73.8473C385.715 73.1057 385.715 73.1054 385.715 73.1052C385.715 73.105 385.715 73.1047 385.714 73.1044C385.714 73.1037 385.714 73.1029 385.713 73.1018C385.712 73.0996 385.711 73.0967 385.71 73.0929C385.707 73.0853 385.702 73.0743 385.696 73.0602C385.684 73.0319 385.667 72.9908 385.645 72.9376C385.601 72.8313 385.536 72.6768 385.452 72.4804C385.285 72.0879 385.043 71.5277 384.742 70.8516C384.14 69.5019 383.295 67.6795 382.33 65.8029C381.37 63.9359 380.266 61.9687 379.144 60.3509C378.583 59.5425 377.991 58.7832 377.384 58.1562C376.799 57.5525 376.085 56.9497 375.26 56.6135L374.522 58.4235L373.784 60.2336C373.878 60.2717 374.145 60.4316 374.576 60.8762C374.984 61.2974 375.441 61.8718 375.932 62.5795C376.913 63.994 377.927 65.7893 378.853 67.591C379.775 69.3832 380.588 71.136 381.171 72.4442C381.463 73.0972 381.696 73.6367 381.855 74.0116C381.935 74.199 381.996 74.3451 382.037 74.4435C382.058 74.4927 382.073 74.5299 382.084 74.5545C382.089 74.5667 382.092 74.5758 382.095 74.5816C382.096 74.5845 382.097 74.5865 382.097 74.5878C382.098 74.5884 382.098 74.5888 382.098 74.589C382.098 74.5891 382.098 74.5891 382.098 74.5892C382.098 74.5891 382.098 74.589 383.906 73.8473ZM383.272 78.5787L385.209 78.8385L385.844 74.107L383.906 73.8473L381.969 73.5876L381.335 78.319L383.272 78.5787ZM385.956 84.0377L387.898 83.8227C387.643 81.52 386.839 79.8471 386.052 78.7263C385.661 78.1703 385.28 77.7564 384.98 77.4705C384.83 77.3274 384.7 77.2159 384.599 77.1341C384.549 77.0932 384.505 77.0596 384.47 77.0332C384.452 77.02 384.437 77.0085 384.423 76.9988C384.416 76.994 384.41 76.9896 384.405 76.9856C384.402 76.9836 384.399 76.9817 384.397 76.9799C384.395 76.979 384.394 76.9782 384.393 76.9773C384.392 76.9769 384.392 76.9763 384.391 76.9761C384.39 76.9755 384.39 76.9749 383.272 78.5787C382.155 80.1826 382.154 80.182 382.153 80.1814C382.153 80.1812 382.152 80.1806 382.151 80.1803C382.15 80.1795 382.149 80.1788 382.148 80.1781C382.146 80.1767 382.145 80.1754 382.143 80.1742C382.139 80.1718 382.136 80.1697 382.134 80.1679C382.129 80.1644 382.126 80.1622 382.125 80.1615C382.123 80.1599 382.129 80.1639 382.14 80.1734C382.164 80.1927 382.214 80.2342 382.282 80.299C382.418 80.429 382.626 80.6506 382.853 80.9731C383.3 81.6094 383.837 82.666 384.013 84.2528L385.956 84.0377ZM385.463 95.8354L387.41 95.9999C387.598 93.779 387.781 91.3285 387.888 89.1614C387.993 87.044 388.034 85.0492 387.898 83.8227L385.956 84.0377L384.013 84.2528C384.109 85.123 384.09 86.8164 383.984 88.9683C383.88 91.0706 383.701 93.4705 383.515 95.6709L385.463 95.8354ZM377.946 101.572L377.611 103.497C382.428 104.337 386.994 100.926 387.41 95.9999L385.463 95.8354L383.515 95.6709C383.296 98.2567 380.891 100.101 378.282 99.6461L377.946 101.572ZM374.834 101.029L374.498 102.955L377.611 103.497L377.946 101.572L378.282 99.6461L375.17 99.1035L374.834 101.029ZM375.466 111.289L377.037 110.126C377.037 110.126 377.034 110.122 377.027 110.111C377.021 110.101 377.012 110.085 377.001 110.064C376.979 110.021 376.952 109.959 376.921 109.876C376.859 109.705 376.795 109.476 376.738 109.179C376.622 108.583 376.551 107.822 376.525 106.935C376.472 105.165 376.6 103.091 376.78 101.215L374.834 101.029L372.888 100.843C372.703 102.785 372.557 105.044 372.617 107.052C372.647 108.054 372.729 109.043 372.9 109.923C373.062 110.759 373.34 111.703 373.895 112.453L375.466 111.289ZM388.618 117.437C389.188 115.568 389.189 115.568 389.189 115.568C389.189 115.568 389.189 115.568 389.189 115.568C389.188 115.568 389.188 115.568 389.188 115.568C389.187 115.567 389.185 115.567 389.183 115.566C389.179 115.565 389.171 115.563 389.162 115.56C389.143 115.554 389.113 115.545 389.074 115.532C388.996 115.508 388.88 115.472 388.73 115.424C388.431 115.329 387.999 115.189 387.473 115.012C386.42 114.658 385 114.159 383.523 113.579C382.039 112.995 380.536 112.344 379.3 111.688C377.973 110.983 377.26 110.427 377.037 110.126L375.466 111.289L373.895 112.453C374.694 113.532 376.136 114.434 377.466 115.14C378.888 115.895 380.545 116.608 382.093 117.217C383.649 117.829 385.134 118.35 386.227 118.718C386.775 118.902 387.227 119.048 387.543 119.149C387.701 119.199 387.826 119.238 387.912 119.265C387.954 119.278 387.988 119.289 388.01 119.296C388.022 119.299 388.031 119.302 388.037 119.304C388.04 119.305 388.043 119.306 388.044 119.306C388.045 119.306 388.046 119.307 388.047 119.307C388.047 119.307 388.047 119.307 388.047 119.307C388.047 119.307 388.048 119.307 388.618 117.437ZM373.063 135.621L374.549 136.892L390.103 118.708L388.618 117.437L387.133 116.167L371.578 134.351L373.063 135.621ZM341.272 116.236L340.255 117.905L372.046 137.29L373.063 135.621L374.081 133.952L342.29 114.567L341.272 116.236ZM350.869 111.363L349.62 109.859C347.451 111.661 345.103 112.96 340.677 114.374L341.272 116.236L341.867 118.098C346.633 116.575 349.465 115.07 352.118 112.867L350.869 111.363ZM352.557 109.383L350.828 108.471C350.58 108.941 350.176 109.398 349.62 109.859L350.869 111.363L352.118 112.867C352.908 112.211 353.717 111.372 354.286 110.295L352.557 109.383ZM352.217 91.3393L350.325 91.8303C351.016 94.493 351.721 97.6231 351.947 100.659C352.174 103.732 351.889 106.459 350.828 108.471L352.557 109.383L354.286 110.295C355.85 107.328 356.094 103.728 355.845 100.37C355.594 96.9761 354.816 93.5732 354.109 90.8483L352.217 91.3393ZM349.955 90.4815L349.262 92.3092L351.524 93.167L352.217 91.3393L352.91 89.5115L350.648 88.6538L349.955 90.4815ZM344.571 81.5436L342.632 81.2939C342.313 83.772 342.853 85.9041 344.07 87.7423C345.245 89.5187 346.987 90.9218 348.913 92.1353L349.955 90.4815L350.997 88.8276C349.274 87.7425 348.064 86.6939 347.33 85.5847C346.636 84.5372 346.309 83.3497 346.509 81.7933L344.571 81.5436ZM347.765 78.8795L347.641 76.9287C345.433 77.0689 342.985 78.5538 342.632 81.2939L344.571 81.5436L346.509 81.7933C346.537 81.5815 346.643 81.3795 346.873 81.197C347.117 81.0033 347.477 80.8563 347.889 80.8302L347.765 78.8795ZM350.092 78.7317L349.968 76.7809L347.641 76.9287L347.765 78.8795L347.889 80.8302L350.216 80.6824L350.092 78.7317ZM350.817 75.2134L348.866 75.095C348.802 76.1535 348.753 76.9064 348.672 77.4065C348.629 77.6706 348.6 77.6965 348.64 77.6124C348.658 77.5755 349.016 76.8414 349.968 76.7809L350.092 78.7317L350.216 80.6824C351.426 80.6056 351.987 79.6774 352.169 79.2951C352.374 78.8656 352.471 78.3947 352.53 78.0371C352.651 77.2939 352.709 76.3039 352.768 75.3318L350.817 75.2134ZM354.318 63.7447L353.053 62.2552C351.093 63.9205 350.146 66.3918 349.634 68.6454C349.114 70.9309 348.973 73.3274 348.866 75.095L350.817 75.2134L352.768 75.3318C352.878 73.5175 353.009 71.4367 353.446 69.5118C353.891 67.5551 354.585 66.083 355.584 65.2341L354.318 63.7447ZM374.522 58.4235L375.26 56.6135C373.908 56.0622 372.099 55.9939 370.329 56.1195C368.484 56.2504 366.39 56.6167 364.297 57.1514C360.185 58.202 355.709 59.9978 353.053 62.2552L354.318 63.7447L355.584 65.2341C357.563 63.5521 361.352 61.9386 365.265 60.9391C367.184 60.4487 369.043 60.1299 370.606 60.019C372.244 59.9028 373.3 60.0361 373.784 60.2336L374.522 58.4235Z" fill="#242424"/>
<path d="M463.803 75.5265C462.66 83.355 457.516 87.2693 454.086 87.2756C450.656 87.2819 386.764 79.5439 383.906 78.8965C380.809 78.1952 378.189 75.9757 378.189 72.3727C378.189 68.7697 380.749 65.8489 383.906 65.8489C386.543 65.8489 450.656 59.8694 455.801 59.8694C460.945 59.8694 464.947 67.6979 463.803 75.5265Z" fill="#555551" stroke="#242424" stroke-width="3.90938"/>
<ellipse cx="456.411" cy="72.6787" rx="6.7097" ry="12.1994" fill="#80BDC4" stroke="#242424" stroke-width="3.90938"/>
<ellipse cx="457.84" cy="68.4095" rx="1.82992" ry="3.04986" fill="white"/>
<path d="M456.439 75.4548C457.758 78.4523 458.837 80.6422 457.66 81.1601C456.484 81.6781 453.497 80.328 452.177 77.3304C450.858 74.3329 451.706 70.823 452.882 70.305C454.059 69.7871 455.119 72.4572 456.439 75.4548Z" fill="#ACD4D9"/>
<path d="M463.803 75.5267C462.66 83.3552 457.516 87.2695 454.086 87.2758C450.656 87.2822 386.764 79.5441 383.906 78.8968C380.809 78.1954 378.189 75.9759 378.189 72.373C378.189 68.77 380.749 65.8492 383.906 65.8492C386.543 65.8492 450.656 59.8696 455.801 59.8696C460.945 59.8696 464.947 67.6982 463.803 75.5267Z" stroke="#242424" stroke-width="3.90938"/>
<path d="M343.688 113.547L327.219 116.597L318.679 144.046L325.943 184.449C326.781 189.106 326.452 193.898 324.987 198.397L316 226C345.846 226 377.5 224.5 398 219.5L397.313 183.313C397.092 171.717 398.406 160.143 401.219 148.892L402.02 145.685L441.744 152.711C450.463 154.253 457.013 144.911 452.591 137.239L425.192 89.7045C424.894 89.1889 424.283 88.9398 423.711 89.1047C417.582 90.8725 413.963 92.5482 408.898 97.4889C408.479 97.8971 408.393 98.5386 408.682 99.0469L424.686 127.207L415.008 124.13L412.927 122.696C407.084 118.67 400.499 115.849 393.554 114.396L378.713 111.29C378.713 111.29 375.437 127.7 371.07 128.214C366.702 128.728 343.688 113.547 343.688 113.547Z" fill="#FEEB29"/>
<path d="M354.058 94.0286L349.178 76.9494L351.618 72.0696L354.61 81.4746C355.419 84.0174 357.319 86.0676 359.793 87.0675L366.914 89.9455C370.96 91.5807 375.6 90.2518 378.167 86.7226C380.802 84.0018 382.326 83.7112 385.087 84.5388V90.9203L383.946 98.9084L375.407 100.738L354.058 94.0286Z" fill="#242424" stroke="#242424" stroke-width="2.60625"/>
<path d="M351.18 203.569L333.816 200.279L324.666 205.769L326.312 209.062C327.609 211.654 329.819 213.675 332.517 214.734L339.136 217.332C340.537 217.882 341.309 219.391 340.934 220.849C340.075 224.192 343.592 226.966 346.643 225.351L355.078 220.885C356.234 220.273 357.118 219.248 357.554 218.014L358.325 215.829C359.449 212.644 358.721 209.098 356.433 206.614L356.192 206.352C354.864 204.91 353.107 203.934 351.18 203.569Z" fill="#E5BD9C" stroke="#242424" stroke-width="5"/>
<path d="M325.687 116.815L333.448 115.378L329.579 149.507L310.344 176.84C309.431 178.137 309.879 179.942 311.292 180.662L349.779 200.279C342.682 197.549 330.571 207.562 329.579 216.657L325.758 214.474L324.666 211.183L295.536 197.095C285.937 192.453 282.346 180.609 287.743 171.414C294.375 160.115 302.079 146.953 303.374 144.593C305.182 141.298 308.164 134.458 312.625 126.141C315.285 121.181 320.152 117.84 325.687 116.815Z" fill="#FEEB29"/>
</svg>
