<svg width="24" height="24" viewBox="0 0 24 24" fill="none" xmlns="http://www.w3.org/2000/svg">
<path fill-rule="evenodd" clip-rule="evenodd" d="M4.21921 10H4C3.44772 10 3 10.4477 3 11C3 11.5523 3.44772 12 4 12H4.98141C4.99434 12.0003 5.00724 12.0003 5.0201 12H18.9799C18.9928 12.0002 19.0057 12.0003 19.0186 12H20C20.5523 12 21 11.5523 21 11C21 10.4477 20.5523 10 20 10H19.7808L18.4701 4.75744C18.3681 4.34924 18.1719 3.98209 17.864 3.69471C17.5595 3.41056 17.2019 3.25657 16.8576 3.18003C16.2087 3.03583 15.4946 3.14343 14.9081 3.27375C14.4483 3.37591 13.9596 3.51947 13.5276 3.64636C13.3946 3.68544 13.2669 3.72293 13.1472 3.75715C12.578 3.91975 12.212 3.99994 12 3.99995C11.7879 3.99996 11.4219 3.9198 10.8528 3.75721C10.733 3.72298 10.6053 3.68547 10.4722 3.64638C10.0403 3.51951 9.55158 3.37596 9.09193 3.27382C8.50544 3.14349 7.79128 3.03588 7.14245 3.18007C6.79808 3.25659 6.44049 3.41057 6.13604 3.69473C5.82813 3.98211 5.63191 4.34926 5.52986 4.75746L4.21921 10ZM13.6966 5.6802C13.172 5.8301 12.538 5.99992 12 5.99995C11.4621 5.99998 10.8281 5.83016 10.3034 5.68027C10.1518 5.63695 10.0034 5.5934 9.8577 5.55063C9.44109 5.42835 9.04605 5.31241 8.65807 5.22619C8.11956 5.10652 7.77122 5.08913 7.5763 5.13244C7.53226 5.14223 7.51014 5.15223 7.50136 5.15708C7.49513 5.16723 7.4827 5.19232 7.47014 5.24254L6.28077 10H17.7192L16.5299 5.24252C16.5173 5.19229 16.5049 5.16719 16.4986 5.15704C16.4899 5.1522 16.4677 5.14219 16.4237 5.1324C16.2288 5.08908 15.8804 5.10647 15.3419 5.22613C14.9539 5.31235 14.5588 5.42832 14.1421 5.55062C13.9965 5.59337 13.8481 5.6369 13.6966 5.6802ZM16.5033 5.16004L16.5015 5.15872C16.5028 5.15955 16.5034 5.16001 16.5033 5.16004ZM7.49666 5.16007C7.49625 5.16037 7.49664 5.16006 7.49666 5.16007V5.16007Z" fill="white"/>
<path fill-rule="evenodd" clip-rule="evenodd" d="M7.5 13C5.567 13 4 14.567 4 16.5C4 18.433 5.567 20 7.5 20C9.433 20 11 18.433 11 16.5C11 16.4783 10.9998 16.4566 10.9994 16.435C11.0903 16.3711 11.1912 16.3061 11.2981 16.2457C11.6056 16.072 11.8517 16 12 16C12.1483 16 12.3944 16.072 12.7019 16.2457C12.8088 16.3061 12.9097 16.3711 13.0006 16.435C13.0002 16.4566 13 16.4783 13 16.5C13 18.433 14.567 20 16.5 20C18.433 20 20 18.433 20 16.5C20 14.567 18.433 13 16.5 13C15.3189 13 14.2755 13.5845 13.6418 14.4798C13.215 14.2441 12.6298 14 12 14C11.3702 14 10.785 14.2441 10.3582 14.4798C9.72451 13.5845 8.68106 13 7.5 13ZM6 16.5C6 15.6716 6.67157 15 7.5 15C8.22452 15 8.83108 15.5147 8.96998 16.1989C8.98956 16.2954 9 16.396 9 16.5C9 17.3284 8.32843 18 7.5 18C6.67157 18 6 17.3284 6 16.5ZM15.03 16.1989C15.1689 15.5147 15.7755 15 16.5 15C17.3284 15 18 15.6716 18 16.5C18 17.3284 17.3284 18 16.5 18C15.6716 18 15 17.3284 15 16.5C15 16.396 15.0104 16.2954 15.03 16.1989Z" fill="white"/>
</svg>
