<svg width="103" height="24" viewBox="0 0 103 24" fill="none" xmlns="http://www.w3.org/2000/svg">
<path fill-rule="evenodd" clip-rule="evenodd" d="M24.0584 12C24.0584 18.6147 18.66 24 12.0292 24C5.39841 24 0 18.6147 0 12C0 5.37443 5.38751 0 12.0292 0C13.8614 0 15.6063 0.413418 17.155 1.14234L15.1592 3.70988C14.1886 3.33998 13.1307 3.14415 12.0292 3.14415C7.35056 3.14415 3.50079 6.76699 3.17361 11.3581C3.16271 11.456 3.16271 11.5431 3.16271 11.641C3.16271 11.7606 3.1518 11.8803 3.1518 12.0109C3.1518 16.8957 7.13245 20.8667 12.0292 20.8667C16.9259 20.8667 20.9066 16.8957 20.9066 12.0109C20.9066 11.3581 20.8302 10.7162 20.6994 10.107L23.0223 7.12602C23.6876 8.60562 24.0584 10.2593 24.0584 12Z" fill="#FFE01A"/>
<path fill-rule="evenodd" clip-rule="evenodd" d="M21.6051 4.74349L12.466 16.4933L6.66406 11.3147L8.7689 8.96471L12.0516 11.8913L19.3694 2.49146C20.2092 3.14422 20.9617 3.8949 21.6051 4.74349Z" fill="#242424"/>
<path fill-rule="evenodd" clip-rule="evenodd" d="M29.1523 18.4841V5.71171H32.3587V7.38714H32.8276C33.0348 6.94108 33.4165 6.51679 33.9946 6.11425C34.5617 5.71171 35.4232 5.505 36.5793 5.505C37.5826 5.505 38.4551 5.73347 39.1967 6.1904C39.9492 6.64734 40.5272 7.26746 40.9416 8.07254C41.356 8.86674 41.5632 9.80237 41.5632 10.8686V18.495H38.3133V11.1297C38.3133 10.1723 38.0734 9.44335 37.6044 8.96465C37.1355 8.48596 36.4593 8.24661 35.5759 8.24661C34.5726 8.24661 33.7983 8.57299 33.253 9.23664C32.6968 9.90028 32.4241 10.825 32.4241 12V18.495L29.1523 18.4841Z" fill="#242424"/>
<path fill-rule="evenodd" clip-rule="evenodd" d="M49.9608 15.9601C50.9641 15.9601 51.7821 15.6337 52.4364 14.9918C53.0908 14.35 53.4179 13.4252 53.4179 12.2285V11.9674C53.4179 10.7706 53.0908 9.84589 52.4473 9.204C51.8039 8.56211 50.975 8.23573 49.9608 8.23573C48.9574 8.23573 48.1395 8.56211 47.4851 9.204C46.8308 9.84589 46.5036 10.7706 46.5036 11.9674V12.2285C46.5036 13.4252 46.8308 14.35 47.4851 14.9918C48.1286 15.6337 48.9574 15.9601 49.9608 15.9601ZM49.9608 18.8432C48.6848 18.8432 47.5397 18.5821 46.5254 18.0707C45.5112 17.5594 44.7041 16.8087 44.1261 15.8296C43.5372 14.8504 43.2536 13.6754 43.2536 12.3046V11.8912C43.2536 10.5204 43.5481 9.34543 44.1261 8.36628C44.715 7.38714 45.5112 6.63646 46.5254 6.12513C47.5397 5.61379 48.6848 5.35269 49.9608 5.35269C51.2368 5.35269 52.3819 5.61379 53.3961 6.12513C54.4104 6.63646 55.2065 7.38714 55.7954 8.36628C56.3843 9.34543 56.6679 10.5204 56.6679 11.8912V12.3046C56.6679 13.6754 56.3734 14.8504 55.7954 15.8296C55.2065 16.8087 54.4104 17.5594 53.3961 18.0707C52.371 18.5821 51.2368 18.8432 49.9608 18.8432Z" fill="#242424"/>
<path fill-rule="evenodd" clip-rule="evenodd" d="M58.3692 18.4841V5.71171H61.5755V7.14779H62.0445C62.2299 6.63646 62.568 6.28832 63.0042 6.04897C63.4404 5.80962 63.9312 5.71171 64.5201 5.71171H66.0578V8.38804H64.4547C63.5168 8.4098 62.9497 8.75794 62.4153 9.204C61.8809 9.63918 61.6192 10.3137 61.6192 11.2276V18.495L58.3692 18.4841Z" fill="#242424"/>
<path fill-rule="evenodd" clip-rule="evenodd" d="M70.6274 18.4841C69.7877 18.4841 69.1006 18.223 68.5771 17.7008C68.0536 17.1786 67.7919 16.4823 67.7919 15.6011V8.38804H64.5856V5.71171H67.7919V1.74072H71.0418V5.71171H74.5535V8.38804H71.0418V15.0354C71.0418 15.5467 71.2818 15.8078 71.7616 15.8078H74.2373V18.4841H70.6274Z" fill="#242424"/>
<path fill-rule="evenodd" clip-rule="evenodd" d="M81.8278 15.9601C82.8311 15.9601 83.649 15.6337 84.3034 14.9918C84.9577 14.35 85.2849 13.4252 85.2849 12.2285V11.9674C85.2849 10.7706 84.9577 9.84589 84.3143 9.204C83.6709 8.56211 82.842 8.23573 81.8278 8.23573C80.8244 8.23573 80.0065 8.56211 79.3521 9.204C78.6978 9.84589 78.3706 10.7706 78.3706 11.9674V12.2285C78.3706 13.4252 78.6978 14.35 79.3521 14.9918C80.0065 15.6337 80.8353 15.9601 81.8278 15.9601ZM81.8278 18.8432C80.5518 18.8432 79.4067 18.5821 78.3924 18.0707C77.3782 17.5594 76.5711 16.8087 75.9931 15.8296C75.4042 14.8504 75.1097 13.6754 75.1097 12.3046V11.8912C75.1097 10.5204 75.4042 9.34543 75.9931 8.36628C76.582 7.38714 77.3782 6.63646 78.3924 6.12513C79.4067 5.61379 80.5518 5.35269 81.8278 5.35269C83.1037 5.35269 84.2489 5.61379 85.2631 6.12513C86.2774 6.63646 87.0735 7.38714 87.6624 8.36628C88.2513 9.34543 88.5349 10.5204 88.5349 11.8912V12.3046C88.5349 13.6754 88.2404 14.8504 87.6624 15.8296C87.0735 16.8087 86.2774 17.5594 85.2631 18.0707C84.2489 18.5821 83.1037 18.8432 81.8278 18.8432Z" fill="#242424"/>
<path fill-rule="evenodd" clip-rule="evenodd" d="M90.2362 18.4841V5.71171H93.4425V7.38714H93.9115C94.1187 6.94108 94.5004 6.51679 95.0784 6.11425C95.6455 5.71171 96.5071 5.505 97.6631 5.505C98.6664 5.505 99.5389 5.73347 100.281 6.1904C101.033 6.64734 101.611 7.26746 102.025 8.07254C102.44 8.87762 102.647 9.80237 102.647 10.8686V18.495H99.3971V11.1297C99.3971 10.1723 99.1572 9.44335 98.6882 8.96465C98.2193 8.48596 97.5431 8.24661 96.6598 8.24661C95.6564 8.24661 94.8821 8.57299 94.3368 9.23664C93.7915 9.90028 93.508 10.825 93.508 12V18.495L90.2362 18.4841Z" fill="#242424"/>
</svg>
