<svg width="110" height="60" viewBox="0 0 110 60" fill="none" xmlns="http://www.w3.org/2000/svg">
<path d="M68.6941 19.6314C62.6388 17.3138 58.7472 11.9581 50.9922 7.44865C42.226 2.35116 26.9447 4.44746 23.7956 14.8238C21.4255 22.6332 20.8193 26.1877 17.2638 28.7588C7.76988 35.624 10.6922 53.3884 28.177 53.4153C38.0683 53.4306 41.0952 52.6326 53.0766 49.643C65.058 46.6534 75.0521 50.8171 85.5718 48.276C102.935 44.0819 99.1293 26.755 83.9192 23.2078C78.7953 22.0128 73.1511 21.3373 68.6941 19.6314Z" fill="#F7F5F2"/>
<path d="M93.4685 41.9182L91.9258 41.6451L95.6936 20.3592L97.2363 20.6322L93.4685 41.9182Z" fill="#FBEECA"/>
<path fill-rule="evenodd" clip-rule="evenodd" d="M91.6836 41.814L93.6366 42.1597L97.477 20.4635L95.524 20.1178L91.6836 41.814ZM92.1665 41.4764L95.8617 20.6007L96.9941 20.8011L93.2989 41.6768L92.1665 41.4764Z" fill="#FBEECA"/>
<path d="M96.0444 26.463L94.8861 26.2588C94.5444 26.2005 94.3194 25.8755 94.3778 25.5338L95.2944 20.363C95.3528 20.0213 95.6778 19.7963 96.0194 19.8547L97.1778 20.0588C97.5194 20.1172 97.7444 20.4422 97.6861 20.7838L96.7694 25.9547C96.7069 26.2963 96.3819 26.5255 96.0444 26.463Z" fill="#FFE4DD"/>
<path fill-rule="evenodd" clip-rule="evenodd" d="M95.0889 20.3273C95.0888 20.3275 95.0888 20.3277 95.0888 20.328L94.1721 25.4988C94.0949 25.9511 94.3928 26.3857 94.8502 26.4641C94.8503 26.4642 94.8505 26.4642 94.8507 26.4642L96.0062 26.6679C96.0065 26.6679 96.0068 26.668 96.0071 26.668C96.461 26.7516 96.8915 26.4434 96.9741 25.9922L96.9743 25.9911L97.8912 20.8189C97.9684 20.3666 97.6704 19.932 97.2131 19.8536L96.0542 19.6493C95.6019 19.5721 95.1673 19.87 95.0889 20.3273ZM95.9836 20.06C95.7529 20.0209 95.538 20.1725 95.4995 20.3981L94.5828 25.5689C94.5828 25.5691 94.5827 25.5693 94.5827 25.5695C94.5437 25.8001 94.6953 26.015 94.9208 26.0535L94.9219 26.0537L96.0803 26.2579L96.0821 26.2582C96.3026 26.299 96.5215 26.1492 96.5641 25.9177C96.5641 25.9175 96.5642 25.9174 96.5642 25.9172L97.4804 20.7488C97.4805 20.7486 97.4805 20.7484 97.4805 20.7482C97.5196 20.5176 97.3679 20.3027 97.1424 20.2642L95.9841 20.06C95.9839 20.06 95.9837 20.06 95.9836 20.06Z" fill="#FFE4DD"/>
<path d="M91.096 44.5825L89.5376 44.4533L91.3418 22.9116L92.2876 21.5325L92.9043 23.0408L91.096 44.5825Z" fill="#EAEAEA"/>
<path fill-rule="evenodd" clip-rule="evenodd" d="M92.3095 21.3253C92.2333 21.3172 92.1588 21.3515 92.1155 21.4147L91.1697 22.7938C91.1492 22.8236 91.1369 22.8583 91.1339 22.8943L89.3297 44.436C89.3251 44.4911 89.3425 44.5457 89.3783 44.5879C89.414 44.6301 89.465 44.6564 89.5201 44.661L91.0784 44.7902C91.193 44.7997 91.2936 44.7145 91.3032 44.6L93.1116 23.0583C93.1143 23.0255 93.1093 22.9925 93.0968 22.962L92.4801 21.4537C92.4512 21.3828 92.3856 21.3335 92.3095 21.3253ZM92.2406 21.9689L92.6922 23.0733L90.9054 44.3577L89.7623 44.263L91.5445 22.984L92.2406 21.9689Z" fill="#EAEAEA"/>
<path d="M89.0064 45.9995L87.4396 46.0063L87.34 24.39L88.1586 22.9373L88.9068 24.3831L89.0064 45.9995Z" fill="#EAEAEA"/>
<path fill-rule="evenodd" clip-rule="evenodd" d="M88.1619 22.729C88.0854 22.7277 88.0143 22.7684 87.9767 22.835L87.158 24.2877C87.1403 24.3192 87.131 24.3548 87.1312 24.391L87.2308 46.0073C87.2313 46.1224 87.325 46.2152 87.4401 46.2147L89.0069 46.2078C89.0621 46.2076 89.115 46.1854 89.1539 46.1462C89.1928 46.1069 89.2146 46.0538 89.2143 45.9985L89.1147 24.3822C89.1146 24.3492 89.1066 24.3167 89.0914 24.2874L88.3432 22.8416C88.308 22.7736 88.2384 22.7304 88.1619 22.729ZM88.6983 24.4343L88.7967 45.7921L87.6465 45.7971L87.5481 24.4442L88.1504 23.3755L88.6983 24.4343Z" fill="#EAEAEA"/>
<path d="M89.6789 50.6202H82.1122L80.8956 34.3035C80.8372 33.5451 81.4414 32.8951 82.2039 32.8951H91.8789L89.6789 50.6202Z" fill="#E2DBCE"/>
<path d="M94.6092 50.6202H87.0458L86.0583 32.8951H95.7342C96.4967 32.8951 97.0967 33.541 97.0425 34.3035L95.9175 49.4077C95.8633 50.091 95.2967 50.6202 94.6092 50.6202Z" fill="#F4F1ED"/>
<path fill-rule="evenodd" clip-rule="evenodd" d="M22.8514 37.6679C24.754 37.2695 26.8449 36.3482 28.8064 34.9395C30.7679 33.5309 32.2822 31.8626 33.2158 30.2227C31.3171 30.6211 29.2222 31.5424 27.2608 32.9511C25.2993 34.3597 23.785 36.028 22.8514 37.6679Z" fill="#AFD1A1"/>
<path fill-rule="evenodd" clip-rule="evenodd" d="M22.7568 37.7321C23.765 37.5223 24.8791 37.0314 25.9187 36.2808C26.9622 35.5303 27.7664 34.6445 28.2607 33.773C27.2525 33.9829 26.1384 34.4738 25.0949 35.2243C24.0593 35.9749 23.255 36.8606 22.7568 37.7321Z" fill="#D2E9CA"/>
<path fill-rule="evenodd" clip-rule="evenodd" d="M23.4903 38.7355C26.107 36.7221 28.598 33.759 30.5046 30.1413C32.4111 26.5237 33.4154 22.8349 33.5527 19.6157C30.9361 21.629 28.445 24.5922 26.5385 28.2098C24.6358 31.831 23.6276 35.5162 23.4903 38.7355Z" fill="#D2E9CA"/>
<path fill-rule="evenodd" clip-rule="evenodd" d="M21.2031 38.9098C18.8297 37.5331 16.4485 35.3633 14.4752 32.5958C12.502 29.8283 11.2584 26.9079 10.7837 24.2827C13.1571 25.6593 15.5384 27.8292 17.5116 30.5966C19.4809 33.3677 20.7245 36.2846 21.2031 38.9098Z" fill="#AFD1A1"/>
<path fill-rule="evenodd" clip-rule="evenodd" d="M21.6899 37.3337C20.0894 33.6983 19.2028 29.1131 19.344 24.1473C19.4852 19.1814 20.6347 14.646 22.4353 11.1031C24.0359 14.7385 24.9225 19.3237 24.7812 24.2895C24.6439 29.2554 23.4945 33.7908 21.6899 37.3337Z" fill="#AFD1A1"/>
<path fill-rule="evenodd" clip-rule="evenodd" d="M22.2631 38.273C21.2431 34.4526 21.0744 29.7855 21.9846 24.898C22.8908 20.0069 24.7306 15.6884 27.0609 12.4407C28.0808 16.2611 28.2495 20.9282 27.3394 25.8157C26.4293 30.7068 24.5933 35.0253 22.2631 38.273Z" fill="#D2E9CA"/>
<path fill-rule="evenodd" clip-rule="evenodd" d="M22.192 38.9414C21.4741 36.2522 21.3682 32.6097 22.0077 29.1663C22.6471 25.7265 23.9378 22.6887 25.5776 20.4014C26.2955 23.0907 26.4131 26.3704 25.7737 29.8137C25.1382 33.2535 23.8318 36.6577 22.192 38.9414Z" fill="#D2E9CA"/>
<path fill-rule="evenodd" clip-rule="evenodd" d="M22.2826 39.7454C19.6503 36.7182 17.4103 32.5777 16.0412 27.7862C14.6721 22.9947 14.3974 18.3383 15.0487 14.4396C17.681 17.4668 19.921 21.6074 21.2901 26.3989C22.6592 31.1904 22.9338 35.8503 22.2826 39.7454Z" fill="#D2E9CA"/>
<path fill-rule="evenodd" clip-rule="evenodd" d="M21.2705 37.6679C19.3679 37.2695 17.2769 36.3482 15.3154 34.9395C13.354 33.5309 11.8397 31.8626 10.906 30.2227C12.8047 30.6211 14.8996 31.5424 16.8611 32.9511C18.8226 34.3597 20.3368 36.028 21.2705 37.6679Z" fill="#D2E9CA"/>
<path fill-rule="evenodd" clip-rule="evenodd" d="M21.6504 37.6679C20.2146 37.3691 18.6336 36.6719 17.1547 35.6083C15.6718 34.5447 14.5302 33.2855 13.8241 32.044C15.2599 32.3428 16.8408 33.04 18.3198 34.1036C19.7987 35.1672 20.9443 36.4264 21.6504 37.6679Z" fill="#D2E9CA"/>
<path fill-rule="evenodd" clip-rule="evenodd" d="M13.7746 36.5125H31.7378H33.7835C33.9392 36.5125 34.0879 36.5377 34.2294 36.5809C34.233 36.5809 34.2401 36.5845 34.2436 36.5845C34.2755 36.5953 34.3038 36.6097 34.3356 36.6205C34.7214 36.7718 34.9939 37.0706 34.9444 37.4163L33.0438 50.1921C32.9695 50.6854 32.52 51.0959 31.8829 51.0959H31.7378H15.6752C15.0381 51.0959 14.5886 50.6854 14.5143 50.1921L12.6137 37.4163C12.5394 36.923 13.134 36.5125 13.7746 36.5125Z" fill="#F4F1ED"/>
<path fill-rule="evenodd" clip-rule="evenodd" d="M21.1178 36.5125H23.1754H25.8205H27.8781H41.7191H43.7767C43.9333 36.5125 44.0828 36.5377 44.2252 36.5809C44.2288 36.5809 44.2359 36.5845 44.2395 36.5845C44.2715 36.5953 44.3 36.6097 44.332 36.6205C44.7201 36.7718 44.9942 37.0706 44.9443 37.4163L43.0327 50.1921C42.9579 50.6854 42.5058 51.0959 41.865 51.0959H41.7191H23.1754H23.0295C22.3887 51.0959 21.933 50.6854 21.8618 50.1921L19.9501 36.5125C19.9501 36.5125 20.477 36.5125 21.1178 36.5125Z" fill="#E2DBCE"/>
<path d="M78.5354 50.1824C80.0969 50.1824 81.3672 48.9121 81.3672 47.3506V16.8157C81.3672 15.2542 80.0969 13.9839 78.5354 13.9839H29.424C27.8625 13.9839 26.5922 15.2542 26.5922 16.8157V47.3506C26.5922 48.9121 27.8625 50.1824 29.424 50.1824H78.5354Z" fill="white"/>
<path d="M29.4238 16.8149V47.3537H78.5352V16.8149H29.4238Z" fill="#A5CAF9" fill-opacity="0.75"/>
<path d="M54.253 21.258C48.1679 21.258 43.2632 26.1526 43.2598 32.2376C43.2564 38.3226 48.1543 43.2308 54.236 43.2376C60.3278 43.241 65.2394 38.3396 65.2394 32.2512C65.2394 26.1662 60.338 21.2614 54.2564 21.258H54.253Z" fill="#FEEB29"/>
<path fill-rule="evenodd" clip-rule="evenodd" d="M54.25 24.5184C54.8253 24.5184 55.2916 24.9847 55.2916 25.56V32.6558C55.2916 33.2311 54.8253 33.6975 54.25 33.6975C53.6747 33.6975 53.2083 33.2311 53.2083 32.6558V25.56C53.2083 24.9847 53.6747 24.5184 54.25 24.5184ZM51.6051 27.6088C51.9522 28.0677 51.8615 28.721 51.4027 29.068C50.2599 29.9324 49.5247 31.2999 49.5247 32.8395C49.5247 35.4492 51.6403 37.5647 54.25 37.5647C56.8597 37.5647 58.9752 35.4492 58.9752 32.8395C58.9752 31.2999 58.24 29.9324 57.0972 29.068C56.6384 28.721 56.5478 28.0677 56.8949 27.6088C57.2419 27.15 57.8952 27.0594 58.354 27.4065C59.995 28.6477 61.0586 30.6196 61.0586 32.8395C61.0586 36.5998 58.0103 39.6481 54.25 39.6481C50.4897 39.6481 47.4414 36.5998 47.4414 32.8395C47.4414 30.6196 48.5049 28.6477 50.1459 27.4065C50.6048 27.0594 51.258 27.15 51.6051 27.6088Z" fill="#242424"/>
<path fill-rule="evenodd" clip-rule="evenodd" d="M84.8997 54.4088C85.9758 54.4088 86.8496 53.4824 86.8496 52.3497C86.8496 51.217 85.9758 50.2906 84.8997 50.2906H23.5793C22.5032 50.2906 21.6294 51.217 21.6294 52.3497C21.6294 53.4824 22.5032 54.4088 23.5793 54.4088H84.8997Z" fill="white"/>
<path d="M23.5788 51.0955C22.9477 51.0955 22.438 51.6578 22.438 52.3456C22.438 53.0333 22.9477 53.5956 23.5788 53.5956H84.8992C85.5303 53.5956 86.04 53.0333 86.04 52.3456C86.04 51.6578 85.5303 51.0955 84.8992 51.0955H56.8281H51.4638H23.5788ZM23.5788 49.4774H51.4638H56.8281H84.8992C86.4203 49.4774 87.6582 50.7638 87.6582 52.3456C87.6582 53.9273 86.4203 55.2138 84.8992 55.2138H23.5788C22.0577 55.2138 20.8198 53.9273 20.8198 52.3456C20.8198 50.7638 22.0577 49.4774 23.5788 49.4774Z" fill="#242424"/>
<path d="M29.4235 14.7932C28.307 14.7932 27.4008 15.6993 27.4008 16.8159V47.3547C27.4008 48.4713 28.307 49.3774 29.4235 49.3774H78.5349C79.6514 49.3774 80.5576 48.4713 80.5576 47.3547V16.8159C80.5576 15.6993 79.6514 14.7932 78.5349 14.7932H29.4235ZM29.4235 13.175H78.5349C80.5414 13.175 82.1758 14.8093 82.1758 16.8159V47.3547C82.1758 49.3613 80.5414 50.9956 78.5349 50.9956H29.4235C27.417 50.9956 25.7826 49.3613 25.7826 47.3547V16.8159C25.7826 14.8093 27.417 13.175 29.4235 13.175Z" fill="#242424"/>
<path d="M76.9802 47.178H64.311L44.1554 16.8353H57.8259L78.0791 47.178C77.8392 47.7846 77.5791 47.178 76.9802 47.178Z" fill="white" fill-opacity="0.2"/>
<path d="M79.1416 43.5404L61.4778 16.8353H72.484L79.1416 26.9015V43.5404Z" fill="white" fill-opacity="0.2"/>
</svg>
