<svg width="48" height="48" viewBox="0 0 48 48" fill="none" xmlns="http://www.w3.org/2000/svg">
<g clip-path="url(#clip0_14439_4290)">
<mask id="mask0_14439_4290" style="mask-type:alpha" maskUnits="userSpaceOnUse" x="-1" y="0" width="49" height="42">
<path d="M2.20537 22.0603C3.23931 22.224 3.97292 23.1603 3.98588 24.207C4.04996 29.3858 6.15347 34.4581 9.83878 38.1434C10.6197 38.9245 10.6198 40.1905 9.83878 40.9716C9.0577 41.7519 7.79148 41.7523 7.01065 40.9716C2.49161 36.4525 -0.0421459 30.201 -0.0154156 23.8504C-0.010561 22.6971 1.06618 21.88 2.20537 22.0603Z" fill="#FF26E9"/>
<path d="M45.7691 22.0647C46.9089 21.8841 47.9722 22.7042 47.9737 23.8583C47.9817 30.2252 45.4025 36.7876 40.7997 41.1083C40.0772 41.7865 38.8561 41.7033 38.1239 40.9716C37.3918 40.2394 37.3701 38.9324 37.9862 38.2948C41.8493 34.2973 43.9138 29.6317 43.9666 24.1915C43.9766 23.1544 44.6962 22.2347 45.7207 22.0724L45.7691 22.0647Z" fill="#FF26E9"/>
<path d="M35.008 5.09706C35.5278 4.07643 36.8081 3.68313 37.7444 4.34286C42.3079 7.55841 45.6833 12.3756 47.1503 17.757C47.4451 18.8387 46.6849 19.8938 45.5776 20.0691C44.5061 20.2388 43.4995 19.5198 43.1962 18.4782C41.9604 14.235 39.2899 10.4232 35.7189 7.81428C34.8661 7.19124 34.5287 6.03819 35.008 5.09706Z" fill="#FF26E9"/>
<path d="M12.9816 5.07812C13.4616 6.02037 13.1226 7.17449 12.2684 7.79782C8.69803 10.4031 6.00701 14.2336 4.76614 18.4733C4.46146 19.5143 3.45534 20.233 2.384 20.0633C1.2766 19.888 0.516766 18.8327 0.812665 17.7512C2.28504 12.37 5.68483 7.53367 10.2481 4.3238C11.184 3.66547 12.4622 4.05855 12.9816 5.07812Z" fill="#FF26E9"/>
<path d="M32.2931 1.48822C33.3533 1.87701 33.7696 3.12268 33.2571 4.12889C32.7691 5.08704 31.6101 5.48352 30.5945 5.13047C26.3498 3.65494 21.6461 3.65037 17.3967 5.12063C16.3817 5.47181 15.2246 5.07486 14.7372 4.11781C14.2243 3.11067 14.6418 1.86375 15.7035 1.47614C21.0263 -0.467152 26.9709 -0.46366 32.2931 1.48822Z" fill="#FF26E9"/>
</mask>
<g mask="url(#mask0_14439_4290)">
<path d="M8.42412 39.5566C5.34736 36.4798 3.25207 32.5598 2.40319 28.2922C1.55432 24.0246 1.98999 19.6012 3.65512 15.5812C5.32025 11.5612 8.14004 8.1253 11.7579 5.70791C15.3758 3.29052 19.6293 2.00024 23.9805 2.00024C28.3317 2.00024 32.5851 3.29052 36.203 5.70791C39.8209 8.1253 42.6407 11.5612 44.3058 15.5812C45.9709 19.6012 46.4066 24.0246 45.5577 28.2922C44.7089 32.5598 42.6136 36.4798 39.5368 39.5566" stroke="white" stroke-opacity="0.15" stroke-width="4" stroke-linecap="round"/>
<path d="M8.42412 39.5566C5.13894 36.2714 2.97811 32.0305 2.25133 27.4418C1.52454 22.8531 2.26911 18.152 4.37833 14.0125C6.48754 9.87289 9.85311 6.50731 13.9927 4.3981C18.1322 2.28889 22.8333 1.54431 27.422 2.2711" stroke="#007644" stroke-width="4" stroke-linecap="round"/>
</g>
</g>
<defs>
<clipPath id="clip0_14439_4290">
<rect width="48" height="48" fill="white"/>
</clipPath>
</defs>
</svg>
