<svg width="24" height="24" viewBox="0 0 24 24" fill="none" xmlns="http://www.w3.org/2000/svg">
<mask id="mask0_14439_4237" style="mask-type:alpha" maskUnits="userSpaceOnUse" x="0" y="0" width="24" height="24">
<path d="M6.72363 9.77539C6.72363 9.57173 6.73492 9.36947 6.75586 9.16992H6.55078C4.46203 9.17016 2.83398 10.7791 2.83398 12.6846C2.83412 14.4554 4.23758 15.9672 6.11426 16.1748C6.53621 16.2217 6.85546 16.5783 6.85547 17.0029V17.7197L7.88867 16.4951L7.95117 16.4277C8.10519 16.2814 8.31061 16.1982 8.52539 16.1982H11.2588C11.8076 16.185 12.1321 15.9657 12.3389 15.6963C12.4109 15.6025 12.4694 15.4974 12.5186 15.3877H12.2129C9.02263 15.3877 6.72384 12.7612 6.72363 9.77539ZM18.1133 8.1416C18.9975 8.1416 19.7802 8.83526 19.7803 9.77051C19.7803 10.7058 18.9976 11.4004 18.1133 11.4004C17.2845 11.4002 16.5453 10.7901 16.4561 9.94336L16.4473 9.77051L16.4375 9.94336C16.3482 10.7902 15.6092 11.4004 14.7803 11.4004C13.896 11.4004 13.1133 10.7058 13.1133 9.77051C13.1133 10.7057 12.3314 11.4002 11.4473 11.4004C10.6183 11.4004 9.87835 10.7902 9.78906 9.94336L9.78027 9.77051L9.78906 9.59863C9.87807 8.75146 10.6181 8.1416 11.4473 8.1416C12.3314 8.14178 13.1132 8.83538 13.1133 9.77051C13.1134 8.83526 13.896 8.1416 14.7803 8.1416C15.6645 8.14161 16.4472 8.83526 16.4473 9.77051C16.4474 8.83537 17.2292 8.14177 18.1133 8.1416ZM8.38965 9.77539C8.38985 11.9266 10.0267 13.7217 12.2129 13.7217H14.958L15.0498 13.7266C15.2611 13.7499 15.4572 13.8533 15.5957 14.0176L16.6279 15.2412V14.5146C16.6279 14.095 16.9402 13.7404 17.3564 13.6875C19.4047 13.4281 21.1677 11.6375 21.168 9.77539C21.168 7.74015 19.1204 5.83301 16.8154 5.83301H12.2129C10.0255 5.83301 8.38965 7.62512 8.38965 9.77539ZM22.834 9.77539C22.8338 12.3746 20.7226 14.566 18.2949 15.1992V17.5225C18.2949 17.8724 18.0758 18.1856 17.7471 18.3057C17.4185 18.4255 17.0497 18.3278 16.8242 18.0605L14.5703 15.3877H14.2646C14.1652 15.841 13.9728 16.3048 13.6611 16.7109C13.1503 17.3766 12.3505 17.846 11.2754 17.8652H8.91211L6.65918 20.5371C6.43357 20.8046 6.06502 20.9023 5.73633 20.7822C5.40764 20.6621 5.18848 20.3499 5.18848 20V17.6963C2.89646 17.1193 1.16809 15.1174 1.16797 12.6846C1.16797 9.78796 3.61388 7.50317 6.55078 7.50293H7.19043C8.01728 5.5751 9.87562 4.16699 12.2129 4.16699H16.8154C19.8872 4.16699 22.834 6.67324 22.834 9.77539Z" fill="#242424"/>
</mask>
<g mask="url(#mask0_14439_4237)">
<rect width="24" height="24" fill="white"/>
</g>
</svg>
